SplineFontDB: 3.0
FontName: FdSymbolA-Medium
FullName: FdSymbolA-Medium
FamilyName: FdSymbolA
Weight: Medium
Copyright: Copyright (c) 2012, Michael Ummels. This Font Software is licensed under the SIL Open Font License, Version 1.1.
Version: 1.008
ItalicAngle: 0
UnderlinePosition: -100
UnderlineWidth: 50
Ascent: 800
Descent: 200
InvalidEm: 0
LayerCount: 2
Layer: 0 0 "Back" 1
Layer: 1 0 "Fore" 0
UniqueID: 4182814
OS2Version: 0
OS2_WeightWidthSlopeOnly: 0
OS2_UseTypoMetrics: 0
CreationTime: 1431873290
ModificationTime: 1431873290
OS2TypoAscent: 0
OS2TypoAOffset: 1
OS2TypoDescent: 0
OS2TypoDOffset: 1
OS2TypoLinegap: 0
OS2WinAscent: 0
OS2WinAOffset: 1
OS2WinDescent: 0
OS2WinDOffset: 1
HheadAscent: 0
HheadAOffset: 1
HheadDescent: 0
HheadDOffset: 1
OS2Vendor: 'PfEd'
DEI: 91125
Encoding: Custom
UnicodeInterp: none
NameList: AGL For New Fonts
DisplaySize: -48
AntiAlias: 1
FitToEm: 0
BeginPrivate: 2
BlueValues 31 [-10 0 546 556 707 717 754 764]
OtherBlues 11 [-230 -220]
EndPrivate
BeginChars: 256 204

StartChar: dotmath
Encoding: 0 8901 0
Width: 368
Flags: W
HStem: 181 188<144.251 223.749>
VStem: 90 188<235.251 314.749>
LayerCount: 2
Back
Fore
SplineSet
278 275 m 0
 278 256 257 235 240 219 c 0
 224 202 203 181 184 181 c 0
 165 181 144 202 128 219 c 0
 111 235 90 256 90 275 c 0
 90 294 111 315 128 331 c 0
 144 348 165 369 184 369 c 0
 203 369 224 348 240 331 c 0
 257 315 278 294 278 275 c 0
EndSplineSet
EndChar

StartChar: sym000
Encoding: 1 -1 1
Width: 749
Flags: W
HStem: 181 188<144.251 223.749 524.926 604.104>
VStem: 90 188<235.251 314.749> 471 188<235.251 314.749>
LayerCount: 2
Back
Fore
SplineSet
278 275 m 0
 278 256 257 235 240 219 c 0
 224 202 203 181 184 181 c 0
 165 181 144 202 128 219 c 0
 111 235 90 256 90 275 c 0
 90 294 111 315 128 331 c 0
 144 348 165 369 184 369 c 0
 203 369 224 348 240 331 c 0
 257 315 278 294 278 275 c 0
659 275 m 0
 659 256 638 235 621 219 c 0
 604 202 583 181 565 181 c 0
 546 181 525 202 508 219 c 0
 491 235 471 256 471 275 c 0
 471 294 491 315 508 331 c 0
 525 348 546 369 565 369 c 0
 583 369 604 348 621 331 c 0
 638 315 659 294 659 275 c 0
EndSplineSet
EndChar

StartChar: uni2236
Encoding: 2 8758 2
Width: 368
Flags: W
HStem: -9 188<144.251 223.749> 371 188<144.251 223.749>
VStem: 90 188<44.9263 124.306 425.694 505.074>
LayerCount: 2
Back
Fore
SplineSet
278 85 m 0
 278 66 257 45 240 28 c 0
 224 12 203 -9 184 -9 c 0
 165 -9 144 12 128 28 c 0
 111 45 90 66 90 85 c 0
 90 104 111 124 128 141 c 0
 144 158 165 179 184 179 c 0
 203 179 224 158 240 141 c 0
 257 124 278 104 278 85 c 0
278 465 m 0
 278 446 257 426 240 409 c 0
 224 392 203 371 184 371 c 0
 165 371 144 392 128 409 c 0
 111 426 90 446 90 465 c 0
 90 484 111 505 128 522 c 0
 144 538 165 559 184 559 c 0
 203 559 224 538 240 522 c 0
 257 505 278 484 278 465 c 0
EndSplineSet
EndChar

StartChar: sym001
Encoding: 3 -1 3
Width: 715
Flags: W
HStem: 46 188<183.251 262.749> 316 188<452.251 531.749>
VStem: 129 188<100.896 180.074> 398 188<369.926 449.104>
LayerCount: 2
Back
Fore
SplineSet
317 140 m 0
 317 122 296 101 279 84 c 0
 263 67 242 46 223 46 c 0
 204 46 183 67 167 84 c 0
 150 101 129 122 129 140 c 0
 129 159 150 180 167 197 c 0
 183 214 204 234 223 234 c 0
 242 234 263 214 279 197 c 0
 296 180 317 159 317 140 c 0
586 410 m 0
 586 391 565 370 548 353 c 0
 532 336 511 316 492 316 c 0
 473 316 452 336 436 353 c 0
 419 370 398 391 398 410 c 0
 398 428 419 449 436 466 c 0
 452 483 473 504 492 504 c 0
 511 504 532 483 548 466 c 0
 565 449 586 428 586 410 c 0
EndSplineSet
EndChar

StartChar: sym002
Encoding: 4 -1 4
Width: 715
Flags: W
HStem: 46 188<452.251 531.749> 316 188<183.251 262.749>
VStem: 129 188<369.926 449.104> 398 188<100.896 180.074>
LayerCount: 2
Back
Fore
SplineSet
586 140 m 0
 586 122 565 101 548 84 c 0
 532 67 511 46 492 46 c 0
 473 46 452 67 436 84 c 0
 419 101 398 122 398 140 c 0
 398 159 419 180 436 197 c 0
 452 214 473 234 492 234 c 0
 511 234 532 214 548 197 c 0
 565 180 586 159 586 140 c 0
317 410 m 0
 317 391 296 370 279 353 c 0
 263 336 242 316 223 316 c 0
 204 316 183 336 167 353 c 0
 150 370 129 391 129 410 c 0
 129 428 150 449 167 466 c 0
 183 483 204 504 223 504 c 0
 242 504 263 483 279 466 c 0
 296 449 317 428 317 410 c 0
EndSplineSet
EndChar

StartChar: uni22EF
Encoding: 5 8943 5
Width: 1129
Flags: W
HStem: 181 188<144.251 223.749 524.926 604.104 905.251 984.749>
VStem: 90 188<235.251 314.749> 471 188<235.251 314.749> 851 188<235.251 314.749>
LayerCount: 2
Back
Fore
SplineSet
278 275 m 0
 278 256 257 235 240 219 c 0
 224 202 203 181 184 181 c 0
 165 181 144 202 128 219 c 0
 111 235 90 256 90 275 c 0
 90 294 111 315 128 331 c 0
 144 348 165 369 184 369 c 0
 203 369 224 348 240 331 c 0
 257 315 278 294 278 275 c 0
659 275 m 0
 659 256 638 235 621 219 c 0
 604 202 583 181 565 181 c 0
 546 181 525 202 508 219 c 0
 491 235 471 256 471 275 c 0
 471 294 491 315 508 331 c 0
 525 348 546 369 565 369 c 0
 583 369 604 348 621 331 c 0
 638 315 659 294 659 275 c 0
1039 275 m 0
 1039 256 1018 235 1001 219 c 0
 985 202 964 181 945 181 c 0
 926 181 905 202 889 219 c 0
 872 235 851 256 851 275 c 0
 851 294 872 315 889 331 c 0
 905 348 926 369 945 369 c 0
 964 369 985 348 1001 331 c 0
 1018 315 1039 294 1039 275 c 0
EndSplineSet
EndChar

StartChar: uni22EE
Encoding: 6 8942 6
Width: 368
Flags: W
HStem: -199 188<144.251 223.749> 181 188<144.251 223.749> 561 188<144.251 223.749>
VStem: 90 188<-145.074 -65.8958 235.251 314.749 615.896 695.074>
CounterMasks: 1 e0
LayerCount: 2
Back
Fore
SplineSet
278 -105 m 0
 278 -124 257 -145 240 -162 c 0
 224 -179 203 -199 184 -199 c 0
 165 -199 144 -179 128 -162 c 0
 111 -145 90 -124 90 -105 c 0
 90 -87 111 -66 128 -49 c 0
 144 -32 165 -11 184 -11 c 0
 203 -11 224 -32 240 -49 c 0
 257 -66 278 -87 278 -105 c 0
278 275 m 0
 278 256 257 235 240 219 c 0
 224 202 203 181 184 181 c 0
 165 181 144 202 128 219 c 0
 111 235 90 256 90 275 c 0
 90 294 111 315 128 331 c 0
 144 348 165 369 184 369 c 0
 203 369 224 348 240 331 c 0
 257 315 278 294 278 275 c 0
278 655 m 0
 278 637 257 616 240 599 c 0
 224 582 203 561 184 561 c 0
 165 561 144 582 128 599 c 0
 111 616 90 637 90 655 c 0
 90 674 111 695 128 712 c 0
 144 729 165 749 184 749 c 0
 203 749 224 729 240 712 c 0
 257 695 278 674 278 655 c 0
EndSplineSet
EndChar

StartChar: uni22F0
Encoding: 7 8944 7
Width: 984
Flags: W
HStem: -88 188<183.251 262.749> 181 188<452.251 531.749> 450 188<721.251 800.749>
VStem: 129 188<-33.7488 45.7488> 398 188<235.251 314.749> 667 188<504.251 583.749>
CounterMasks: 1 fc
LayerCount: 2
Back
Fore
SplineSet
317 6 m 0
 317 -13 296 -34 279 -50 c 0
 263 -67 242 -88 223 -88 c 0
 204 -88 183 -67 167 -50 c 0
 150 -34 129 -13 129 6 c 0
 129 25 150 46 167 62 c 0
 183 79 204 100 223 100 c 0
 242 100 263 79 279 62 c 0
 296 46 317 25 317 6 c 0
586 275 m 0
 586 256 565 235 548 219 c 0
 532 202 511 181 492 181 c 0
 473 181 452 202 436 219 c 0
 419 235 398 256 398 275 c 0
 398 294 419 315 436 331 c 0
 452 348 473 369 492 369 c 0
 511 369 532 348 548 331 c 0
 565 315 586 294 586 275 c 0
855 544 m 0
 855 525 834 504 817 488 c 0
 801 471 780 450 761 450 c 0
 742 450 721 471 705 488 c 0
 688 504 667 525 667 544 c 0
 667 563 688 584 705 600 c 0
 721 617 742 638 761 638 c 0
 780 638 801 617 817 600 c 0
 834 584 855 563 855 544 c 0
EndSplineSet
EndChar

StartChar: uni22F1
Encoding: 8 8945 8
Width: 984
Flags: W
HStem: -88 188<721.251 800.749> 181 188<452.251 531.749> 450 188<183.251 262.749>
VStem: 129 188<504.251 583.749> 398 188<235.251 314.749> 667 188<-33.7488 45.7488>
CounterMasks: 1 fc
LayerCount: 2
Back
Fore
SplineSet
855 6 m 0
 855 -13 834 -34 817 -50 c 0
 801 -67 780 -88 761 -88 c 0
 742 -88 721 -67 705 -50 c 0
 688 -34 667 -13 667 6 c 0
 667 25 688 46 705 62 c 0
 721 79 742 100 761 100 c 0
 780 100 801 79 817 62 c 0
 834 46 855 25 855 6 c 0
586 275 m 0
 586 256 565 235 548 219 c 0
 532 202 511 181 492 181 c 0
 473 181 452 202 436 219 c 0
 419 235 398 256 398 275 c 0
 398 294 419 315 436 331 c 0
 452 348 473 369 492 369 c 0
 511 369 532 348 548 331 c 0
 565 315 586 294 586 275 c 0
317 544 m 0
 317 525 296 504 279 488 c 0
 263 471 242 450 223 450 c 0
 204 450 183 471 167 488 c 0
 150 504 129 525 129 544 c 0
 129 563 150 584 167 600 c 0
 183 617 204 638 223 638 c 0
 242 638 263 617 279 600 c 0
 296 584 317 563 317 544 c 0
EndSplineSet
EndChar

StartChar: sym003
Encoding: 9 -1 9
Width: 720
Flags: W
HStem: 8 188<169.926 249.306> 181 188<470.694 550.074> 354 188<169.926 249.306>
VStem: 116 188<61.9263 141.104 408.896 488.074> 416 188<235.251 314.749>
LayerCount: 2
Back
Fore
SplineSet
604 275 m 0x58
 604 256 583 235 567 219 c 0
 550 202 529 181 510 181 c 0
 491 181 471 202 454 219 c 0
 437 235 416 256 416 275 c 0
 416 294 437 315 454 331 c 0
 471 348 491 369 510 369 c 0
 529 369 550 348 567 331 c 0
 583 315 604 294 604 275 c 0x58
304 448 m 0
 304 430 283 409 266 392 c 0
 249 375 229 354 210 354 c 0
 191 354 170 375 153 392 c 0
 137 409 116 430 116 448 c 0
 116 467 137 488 153 505 c 0
 170 522 191 542 210 542 c 0x38
 229 542 249 522 266 505 c 0
 283 488 304 467 304 448 c 0
304 102 m 0
 304 83 283 62 266 45 c 0
 249 28 229 8 210 8 c 0
 191 8 170 28 153 45 c 0
 137 62 116 83 116 102 c 0
 116 120 137 141 153 158 c 0
 170 175 191 196 210 196 c 0x98
 229 196 249 175 266 158 c 0
 283 141 304 120 304 102 c 0
EndSplineSet
EndChar

StartChar: therefore
Encoding: 10 8756 10
Width: 720
Flags: W
HStem: 31 188<146.926 226.104 493.896 573.074> 331 188<320.251 399.749>
VStem: 93 188<84.9263 164.306> 266 188<385.694 465.074> 439 188<84.9263 164.306>
LayerCount: 2
Back
Fore
SplineSet
454 425 m 0xd0
 454 406 433 386 416 369 c 0
 400 352 379 331 360 331 c 0
 341 331 320 352 304 369 c 0
 287 386 266 406 266 425 c 0
 266 444 287 465 304 482 c 0
 320 498 341 519 360 519 c 0
 379 519 400 498 416 482 c 0
 433 465 454 444 454 425 c 0xd0
281 125 m 0xe0
 281 106 260 85 243 68 c 0
 226 52 205 31 187 31 c 0
 168 31 147 52 130 68 c 0
 113 85 93 106 93 125 c 0
 93 144 113 164 130 181 c 0
 147 198 168 219 187 219 c 0
 205 219 226 198 243 181 c 0
 260 164 281 144 281 125 c 0xe0
627 125 m 0xc8
 627 106 607 85 590 68 c 0
 573 52 552 31 533 31 c 0
 515 31 494 52 477 68 c 0
 460 85 439 106 439 125 c 0
 439 144 460 164 477 181 c 0
 494 198 515 219 533 219 c 0
 552 219 573 198 590 181 c 0
 607 164 627 144 627 125 c 0xc8
EndSplineSet
EndChar

StartChar: sym004
Encoding: 11 -1 11
Width: 720
Flags: W
HStem: 8 188<470.694 550.074> 181 188<169.926 249.306> 354 188<470.694 550.074>
VStem: 116 188<235.251 314.749> 416 188<61.9263 141.104 408.896 488.074>
LayerCount: 2
Back
Fore
SplineSet
304 275 m 0x58
 304 256 283 235 266 219 c 0
 249 202 229 181 210 181 c 0
 191 181 170 202 153 219 c 0
 137 235 116 256 116 275 c 0
 116 294 137 315 153 331 c 0
 170 348 191 369 210 369 c 0
 229 369 249 348 266 331 c 0
 283 315 304 294 304 275 c 0x58
604 102 m 0
 604 83 583 62 567 45 c 0
 550 28 529 8 510 8 c 0
 491 8 471 28 454 45 c 0
 437 62 416 83 416 102 c 0
 416 120 437 141 454 158 c 0
 471 175 491 196 510 196 c 0x98
 529 196 550 175 567 158 c 0
 583 141 604 120 604 102 c 0
604 448 m 0
 604 430 583 409 567 392 c 0
 550 375 529 354 510 354 c 0
 491 354 471 375 454 392 c 0
 437 409 416 430 416 448 c 0
 416 467 437 488 454 505 c 0
 471 522 491 542 510 542 c 0x38
 529 542 550 522 567 505 c 0
 583 488 604 467 604 448 c 0
EndSplineSet
EndChar

StartChar: uni2235
Encoding: 12 8757 12
Width: 720
Flags: W
HStem: 31 188<320.251 399.749> 331 188<146.926 226.104 493.896 573.074>
VStem: 93 188<385.694 465.074> 266 188<84.9263 164.306> 439 188<385.694 465.074>
LayerCount: 2
Back
Fore
SplineSet
454 125 m 0xd0
 454 106 433 85 416 68 c 0
 400 52 379 31 360 31 c 0
 341 31 320 52 304 68 c 0
 287 85 266 106 266 125 c 0
 266 144 287 164 304 181 c 0
 320 198 341 219 360 219 c 0
 379 219 400 198 416 181 c 0
 433 164 454 144 454 125 c 0xd0
627 425 m 0xc8
 627 406 607 386 590 369 c 0
 573 352 552 331 533 331 c 0
 515 331 494 352 477 369 c 0
 460 386 439 406 439 425 c 0
 439 444 460 465 477 482 c 0
 494 498 515 519 533 519 c 0
 552 519 573 498 590 482 c 0
 607 465 627 444 627 425 c 0xc8
281 425 m 0xe0
 281 406 260 386 243 369 c 0
 226 352 205 331 187 331 c 0
 168 331 147 352 130 369 c 0
 113 386 93 406 93 425 c 0
 93 444 113 465 130 482 c 0
 147 498 168 519 187 519 c 0
 205 519 226 498 243 482 c 0
 260 465 281 444 281 425 c 0xe0
EndSplineSet
EndChar

StartChar: uni2237
Encoding: 13 8759 13
Width: 720
Flags: W
HStem: 5 188<144.251 223.749 496.251 575.749> 357 188<144.251 223.749 496.251 575.749>
VStem: 90 188<59.2512 138.749 411.251 490.749> 442 188<59.2512 138.749 411.251 490.749>
LayerCount: 2
Back
Fore
SplineSet
630 451 m 0
 630 432 609 411 592 395 c 0
 576 378 555 357 536 357 c 0
 517 357 496 378 480 395 c 0
 463 411 442 432 442 451 c 0
 442 470 463 491 480 507 c 0
 496 524 517 545 536 545 c 0
 555 545 576 524 592 507 c 0
 609 491 630 470 630 451 c 0
278 451 m 0
 278 432 257 411 240 395 c 0
 224 378 203 357 184 357 c 0
 165 357 144 378 128 395 c 0
 111 411 90 432 90 451 c 0
 90 470 111 491 128 507 c 0
 144 524 165 545 184 545 c 0
 203 545 224 524 240 507 c 0
 257 491 278 470 278 451 c 0
278 99 m 0
 278 80 257 59 240 43 c 0
 224 26 203 5 184 5 c 0
 165 5 144 26 128 43 c 0
 111 59 90 80 90 99 c 0
 90 118 111 139 128 155 c 0
 144 172 165 193 184 193 c 0
 203 193 224 172 240 155 c 0
 257 139 278 118 278 99 c 0
630 99 m 0
 630 80 609 59 592 43 c 0
 576 26 555 5 536 5 c 0
 517 5 496 26 480 43 c 0
 463 59 442 80 442 99 c 0
 442 118 463 139 480 155 c 0
 496 172 517 193 536 193 c 0
 555 193 576 172 592 155 c 0
 609 139 630 118 630 99 c 0
EndSplineSet
EndChar

StartChar: minus
Encoding: 14 8722 14
Width: 720
Flags: W
HStem: 232 86<90 630>
LayerCount: 2
Back
Fore
SplineSet
630 318 m 1
 630 232 l 1
 90 232 l 1
 90 318 l 1
 630 318 l 1
EndSplineSet
EndChar

StartChar: uni2215
Encoding: 15 8725 15
Width: 720
Flags: W
HStem: 0 21G<126 166> 530 20G<554 594>
LayerCount: 2
Back
Fore
SplineSet
574 550 m 1
 635 489 l 1
 146 0 l 1
 85 61 l 1
 574 550 l 1
EndSplineSet
EndChar

StartChar: uni2216
Encoding: 16 8726 16
Width: 720
Flags: W
HStem: 0 21G<554 594> 530 20G<126 166>
LayerCount: 2
Back
Fore
SplineSet
85 489 m 1
 146 550 l 1
 635 61 l 1
 574 0 l 1
 85 489 l 1
EndSplineSet
EndChar

StartChar: plus
Encoding: 17 43 17
Width: 720
Flags: W
HStem: 232 86<90 317 403 630> 525 20G<317 403>
VStem: 317 86<5 232 318 545>
LayerCount: 2
Back
Fore
SplineSet
317 545 m 1
 403 545 l 1
 403 318 l 1
 630 318 l 1
 630 232 l 1
 403 232 l 1
 403 5 l 1
 317 5 l 1
 317 232 l 1
 90 232 l 1
 90 318 l 1
 317 318 l 1
 317 545 l 1
EndSplineSet
EndChar

StartChar: multiply
Encoding: 18 215 18
Width: 720
Flags: W
HStem: 0 21G<126 166 554 594> 530 20G<126 166 554 594>
LayerCount: 2
Back
Fore
SplineSet
85 489 m 1
 146 550 l 1
 360 336 l 1
 574 550 l 1
 635 489 l 1
 421 275 l 1
 635 61 l 1
 574 0 l 1
 360 214 l 1
 146 0 l 1
 85 61 l 1
 299 275 l 1
 85 489 l 1
EndSplineSet
EndChar

StartChar: uni2238
Encoding: 19 8760 19
Width: 720
Flags: W
HStem: 232 86<90 630> 397 141<324.512 395.488>
VStem: 290 141<432.504 502.49>
LayerCount: 2
Back
Fore
SplineSet
90 232 m 1
 90 318 l 1
 630 318 l 1
 630 232 l 1
 90 232 l 1
431 467 m 0
 431 453 415 438 402 425 c 0
 390 413 374 397 360 397 c 0
 346 397 330 413 318 425 c 0
 305 438 290 453 290 467 c 0
 290 482 305 497 318 510 c 0
 330 522 346 538 360 538 c 0
 374 538 390 522 402 510 c 0
 415 497 431 482 431 467 c 0
EndSplineSet
EndChar

StartChar: uni2A2A
Encoding: 20 10794 20
Width: 720
Flags: W
HStem: 12 141<324.512 395.488> 232 86<90 630>
VStem: 290 141<47.5103 117.496>
LayerCount: 2
Back
Fore
SplineSet
630 318 m 1
 630 232 l 1
 90 232 l 1
 90 318 l 1
 630 318 l 1
431 83 m 0
 431 68 415 53 402 40 c 0
 390 28 374 12 360 12 c 0
 346 12 330 28 318 40 c 0
 305 53 290 68 290 83 c 0
 290 97 305 112 318 125 c 0
 330 137 346 153 360 153 c 0
 374 153 390 137 402 125 c 0
 415 112 431 97 431 83 c 0
EndSplineSet
EndChar

StartChar: divide
Encoding: 21 247 21
Width: 720
Flags: W
HStem: 12 141<324.512 395.488> 232 86<90 630> 397 141<324.512 395.488>
VStem: 290 141<47.5103 117.496 432.504 502.49>
CounterMasks: 1 e0
LayerCount: 2
Back
Fore
SplineSet
630 318 m 1
 630 232 l 1
 90 232 l 1
 90 318 l 1
 630 318 l 1
431 467 m 0
 431 453 415 438 402 425 c 0
 390 413 374 397 360 397 c 0
 346 397 330 413 318 425 c 0
 305 438 290 453 290 467 c 0
 290 482 305 497 318 510 c 0
 330 522 346 538 360 538 c 0
 374 538 390 522 402 510 c 0
 415 497 431 482 431 467 c 0
431 83 m 0
 431 68 415 53 402 40 c 0
 390 28 374 12 360 12 c 0
 346 12 330 28 318 40 c 0
 305 53 290 68 290 83 c 0
 290 97 305 112 318 125 c 0
 330 137 346 153 360 153 c 0
 374 153 390 137 402 125 c 0
 415 112 431 97 431 83 c 0
EndSplineSet
EndChar

StartChar: uni2A2B
Encoding: 22 10795 22
Width: 720
Flags: W
HStem: 12 141<480.87 552.135> 232 86<90 630> 397 141<167.87 239.135>
VStem: 133 141<431.865 503.13> 446 141<46.8702 118.135>
CounterMasks: 1 e0
LayerCount: 2
Back
Fore
SplineSet
630 318 m 1
 630 232 l 1
 90 232 l 1
 90 318 l 1
 630 318 l 1
274 467 m 0
 274 453 258 438 246 425 c 0
 233 413 218 397 204 397 c 0
 189 397 174 413 161 425 c 0
 149 438 133 453 133 467 c 0
 133 482 149 497 161 510 c 0
 174 522 189 538 204 538 c 0
 218 538 233 522 246 510 c 0
 258 497 274 482 274 467 c 0
587 83 m 0
 587 68 571 53 559 40 c 0
 546 28 531 12 517 12 c 0
 502 12 487 28 474 40 c 0
 462 53 446 68 446 83 c 0
 446 97 462 112 474 125 c 0
 487 137 502 153 517 153 c 0
 531 153 546 137 559 125 c 0
 571 112 587 97 587 83 c 0
EndSplineSet
EndChar

StartChar: uni2A2C
Encoding: 23 10796 23
Width: 720
Flags: W
HStem: 12 141<167.87 239.135> 232 86<90 630> 397 141<480.87 552.135>
VStem: 133 141<46.8702 118.135> 446 141<431.865 503.13>
CounterMasks: 1 e0
LayerCount: 2
Back
Fore
SplineSet
630 318 m 1
 630 232 l 1
 90 232 l 1
 90 318 l 1
 630 318 l 1
587 467 m 0
 587 453 571 438 559 425 c 0
 546 413 531 397 517 397 c 0
 502 397 487 413 474 425 c 0
 462 438 446 453 446 467 c 0
 446 482 462 497 474 510 c 0
 487 522 502 538 517 538 c 0
 531 538 546 522 559 510 c 0
 571 497 587 482 587 467 c 0
274 83 m 0
 274 68 258 53 246 40 c 0
 233 28 218 12 204 12 c 0
 189 12 174 28 161 40 c 0
 149 53 133 68 133 83 c 0
 133 97 149 112 161 125 c 0
 174 137 189 153 204 153 c 0
 218 153 233 137 246 125 c 0
 258 112 274 97 274 83 c 0
EndSplineSet
EndChar

StartChar: uni223A
Encoding: 24 8762 24
Width: 720
Flags: W
HStem: 12 141<167.87 239.135 480.87 552.135> 232 86<90 630> 397 141<167.87 239.135 480.87 552.135>
VStem: 133 141<46.8702 118.135 431.865 503.13> 446 141<46.8702 118.135 431.865 503.13>
CounterMasks: 1 e0
LayerCount: 2
Back
Fore
SplineSet
630 318 m 1
 630 232 l 1
 90 232 l 1
 90 318 l 1
 630 318 l 1
274 467 m 0
 274 453 258 438 246 425 c 0
 233 413 218 397 204 397 c 0
 189 397 174 413 161 425 c 0
 149 438 133 453 133 467 c 0
 133 482 149 497 161 510 c 0
 174 522 189 538 204 538 c 0
 218 538 233 522 246 510 c 0
 258 497 274 482 274 467 c 0
587 467 m 0
 587 453 571 438 559 425 c 0
 546 413 531 397 517 397 c 0
 502 397 487 413 474 425 c 0
 462 438 446 453 446 467 c 0
 446 482 462 497 474 510 c 0
 487 522 502 538 517 538 c 0
 531 538 546 522 559 510 c 0
 571 497 587 482 587 467 c 0
274 83 m 0
 274 68 258 53 246 40 c 0
 233 28 218 12 204 12 c 0
 189 12 174 28 161 40 c 0
 149 53 133 68 133 83 c 0
 133 97 149 112 161 125 c 0
 174 137 189 153 204 153 c 0
 218 153 233 137 246 125 c 0
 258 112 274 97 274 83 c 0
587 83 m 0
 587 68 571 53 559 40 c 0
 546 28 531 12 517 12 c 0
 502 12 487 28 474 40 c 0
 462 53 446 68 446 83 c 0
 446 97 462 112 474 125 c 0
 487 137 502 153 517 153 c 0
 531 153 546 137 559 125 c 0
 571 112 587 97 587 83 c 0
EndSplineSet
EndChar

StartChar: plusminus
Encoding: 25 177 25
Width: 720
Flags: W
HStem: -63 86<90 630> 300 86<90 317 403 630>
VStem: 317 86<72 300 386 613>
LayerCount: 2
Back
Fore
SplineSet
317 613 m 1
 403 613 l 1
 403 386 l 1
 630 386 l 1
 630 300 l 1
 403 300 l 1
 403 72 l 1
 317 72 l 1
 317 300 l 1
 90 300 l 1
 90 386 l 1
 317 386 l 1
 317 613 l 1
630 23 m 1
 630 -63 l 1
 90 -63 l 1
 90 23 l 1
 630 23 l 1
EndSplineSet
EndChar

StartChar: uni2213
Encoding: 26 8723 26
Width: 720
Flags: W
HStem: 164 86<90 317 403 630> 527 86<90 630>
VStem: 317 86<-63 164 250 478>
LayerCount: 2
Back
Fore
SplineSet
317 478 m 1
 403 478 l 1
 403 250 l 1
 630 250 l 1
 630 164 l 1
 403 164 l 1
 403 -63 l 1
 317 -63 l 1
 317 164 l 1
 90 164 l 1
 90 250 l 1
 317 250 l 1
 317 478 l 1
630 613 m 1
 630 527 l 1
 90 527 l 1
 90 613 l 1
 630 613 l 1
EndSplineSet
EndChar

StartChar: uni2214
Encoding: 27 8724 27
Width: 720
Flags: W
HStem: 164 86<90 317 403 630> 499 141<324.512 395.488>
VStem: 290 141<534.51 604.496> 317 86<-63 164 250 478>
LayerCount: 2
Back
Fore
SplineSet
317 478 m 1xd0
 403 478 l 1
 403 250 l 1
 630 250 l 1
 630 164 l 1
 403 164 l 1
 403 -63 l 1
 317 -63 l 1
 317 164 l 1
 90 164 l 1
 90 250 l 1
 317 250 l 1
 317 478 l 1xd0
431 570 m 0xe0
 431 555 415 540 402 527 c 0
 390 515 374 499 360 499 c 0
 346 499 330 515 318 527 c 0
 305 540 290 555 290 570 c 0
 290 584 305 599 318 612 c 0
 330 624 346 640 360 640 c 0
 374 640 390 624 402 612 c 0
 415 599 431 584 431 570 c 0xe0
EndSplineSet
EndChar

StartChar: uni2A25
Encoding: 28 10789 28
Width: 720
Flags: W
HStem: -90 141<324.512 395.488> 300 86<90 317 403 630>
VStem: 290 141<-54.4963 15.4897> 317 86<72 300 386 613>
LayerCount: 2
Back
Fore
SplineSet
317 613 m 1xd0
 403 613 l 1
 403 386 l 1
 630 386 l 1
 630 300 l 1
 403 300 l 1
 403 72 l 1
 317 72 l 1
 317 300 l 1
 90 300 l 1
 90 386 l 1
 317 386 l 1
 317 613 l 1xd0
431 -20 m 0xe0
 431 -34 415 -49 402 -62 c 0
 390 -74 374 -90 360 -90 c 0
 346 -90 330 -74 318 -62 c 0
 305 -49 290 -34 290 -20 c 0
 290 -5 305 10 318 23 c 0
 330 35 346 51 360 51 c 0
 374 51 390 35 402 23 c 0
 415 10 431 -5 431 -20 c 0xe0
EndSplineSet
EndChar

StartChar: uni2A30
Encoding: 29 10800 29
Width: 720
Flags: W
HStem: 472 141<324.512 395.488>
VStem: 290 141<507.51 577.496>
LayerCount: 2
Back
Fore
SplineSet
85 422 m 1
 146 482 l 1
 360 268 l 1
 574 482 l 1
 635 422 l 1
 420 208 l 1
 635 -7 l 1
 574 -67 l 1
 360 147 l 1
 146 -67 l 1
 85 -7 l 1
 300 208 l 1
 85 422 l 1
431 543 m 0
 431 528 415 513 402 500 c 0
 390 488 374 472 360 472 c 0
 346 472 330 488 318 500 c 0
 305 513 290 528 290 543 c 0
 290 557 305 572 318 585 c 0
 330 597 346 613 360 613 c 0
 374 613 390 597 402 585 c 0
 415 572 431 557 431 543 c 0
EndSplineSet
EndChar

StartChar: uni2A31
Encoding: 30 10801 30
Width: 720
Flags: W
HStem: -63 86<90 630>
LayerCount: 2
Back
Fore
SplineSet
85 557 m 1
 146 617 l 1
 360 403 l 1
 574 617 l 1
 635 557 l 1
 420 342 l 1
 635 128 l 1
 574 68 l 1
 360 282 l 1
 146 68 l 1
 85 128 l 1
 300 342 l 1
 85 557 l 1
630 23 m 1
 630 -63 l 1
 90 -63 l 1
 90 23 l 1
 630 23 l 1
EndSplineSet
EndChar

StartChar: uni22C7
Encoding: 31 8903 31
Width: 720
Flags: W
HStem: 0 21G<126 166 554 594> 12 141<324.512 395.488> 232 86<90 256 464 630> 397 141<324.512 395.488> 530 20G<126 166 554 594>
VStem: 290 141<47.5103 117.496 432.504 502.49>
LayerCount: 2
Back
Fore
SplineSet
85 489 m 1xac
 146 550 l 1
 360 336 l 1
 574 550 l 1
 635 489 l 1
 464 318 l 1
 630 318 l 1
 630 232 l 1
 464 232 l 1
 635 61 l 1
 574 0 l 1
 360 214 l 1
 146 0 l 1
 85 61 l 1
 256 232 l 1
 90 232 l 1
 90 318 l 1
 256 318 l 1
 85 489 l 1xac
431 467 m 0
 431 453 415 438 402 425 c 0
 390 413 374 397 360 397 c 0
 346 397 330 413 318 425 c 0
 305 438 290 453 290 467 c 0
 290 482 305 497 318 510 c 0
 330 522 346 538 360 538 c 0x34
 374 538 390 522 402 510 c 0
 415 497 431 482 431 467 c 0
431 83 m 0
 431 68 415 53 402 40 c 0
 390 28 374 12 360 12 c 0
 346 12 330 28 318 40 c 0
 305 53 290 68 290 83 c 0
 290 97 305 112 318 125 c 0
 330 137 346 153 360 153 c 0x64
 374 153 390 137 402 125 c 0
 415 112 431 97 431 83 c 0
EndSplineSet
EndChar

StartChar: logicalnot
Encoding: 32 172 32
Width: 720
Flags: W
HStem: 232 86<90 544>
VStem: 544 86<40 232>
LayerCount: 2
Back
Fore
SplineSet
90 232 m 1
 90 318 l 1
 270 318 450 318 630 318 c 1
 630 225 630 133 630 40 c 1
 544 40 l 1
 544 232 l 1
 90 232 l 1
EndSplineSet
EndChar

StartChar: revlogicalnot
Encoding: 33 8976 33
Width: 720
Flags: W
HStem: 232 86<176 630>
VStem: 90 86<40 232>
LayerCount: 2
Back
Fore
SplineSet
176 232 m 1
 176 40 l 1
 90 40 l 1
 90 133 90 225 90 318 c 1
 270 318 450 318 630 318 c 1
 630 232 l 1
 176 232 l 1
EndSplineSet
EndChar

StartChar: uni2A3C
Encoding: 34 10812 34
Width: 720
Flags: W
HStem: 232 86<90 544>
VStem: 544 86<318 510>
LayerCount: 2
Back
Fore
SplineSet
90 232 m 1
 90 318 l 1
 544 318 l 1
 544 510 l 1
 630 510 l 1
 630 417 630 325 630 232 c 1
 450 232 270 232 90 232 c 1
EndSplineSet
EndChar

StartChar: uni2A3D
Encoding: 35 10813 35
Width: 720
Flags: W
HStem: 232 86<176 630>
VStem: 90 86<318 510>
LayerCount: 2
Back
Fore
SplineSet
630 232 m 1
 450 232 270 232 90 232 c 1
 90 325 90 417 90 510 c 1
 176 510 l 1
 176 318 l 1
 630 318 l 1
 630 232 l 1
EndSplineSet
EndChar

StartChar: uni22CB
Encoding: 36 8907 36
Width: 720
Flags: W
HStem: 0 21G<126 166 554 594> 530 20G<126 166>
LayerCount: 2
Back
Fore
SplineSet
635 61 m 1
 574 0 l 1
 360 214 l 1
 146 0 l 1
 85 61 l 1
 299 275 l 1
 85 489 l 1
 146 550 l 1
 635 61 l 1
EndSplineSet
EndChar

StartChar: uni22CC
Encoding: 37 8908 37
Width: 720
Flags: W
HStem: 0 21G<126 166 554 594> 530 20G<554 594>
LayerCount: 2
Back
Fore
SplineSet
574 550 m 1
 635 489 l 1
 421 275 l 1
 635 61 l 1
 574 0 l 1
 360 214 l 1
 146 0 l 1
 85 61 l 1
 574 550 l 1
EndSplineSet
EndChar

StartChar: uni2A32
Encoding: 38 10802 38
Width: 720
Flags: W
HStem: 5 86<236 484> 530 20G<126 166 554 594>
LayerCount: 2
Back
Fore
SplineSet
604 91 m 1
 581 5 l 1
 139 5 l 1
 116 91 l 1
 300 275 l 1
 85 489 l 1
 146 550 l 1
 360 336 l 1
 574 550 l 1
 635 489 l 1
 420 275 l 1
 604 91 l 1
484 91 m 1
 360 215 l 1
 236 91 l 1
 484 91 l 1
EndSplineSet
EndChar

StartChar: uni22CA
Encoding: 39 8906 39
Width: 720
Flags: W
HStem: 0 21G<126 165.907> 530 20G<126 165.907>
VStem: 544 86<151 399>
LayerCount: 2
Back
Fore
SplineSet
544 519 m 1
 630 496 l 1
 630 54 l 1
 544 31 l 1
 360 215 l 1
 146 0 l 1
 85 61 l 1
 299 275 l 1
 85 489 l 1
 146 550 l 1
 360 335 l 1
 544 519 l 1
544 399 m 1
 420 275 l 1
 544 151 l 1
 544 399 l 1
EndSplineSet
EndChar

StartChar: sym005
Encoding: 40 -1 40
Width: 720
Flags: W
HStem: 0 21G<126 166 554 594> 459 86<236 484>
LayerCount: 2
Back
Fore
SplineSet
116 459 m 1
 139 545 l 1
 581 545 l 1
 604 459 l 1
 420 275 l 1
 635 61 l 1
 574 0 l 1
 360 214 l 1
 146 0 l 1
 85 61 l 1
 300 275 l 1
 116 459 l 1
236 459 m 1
 360 335 l 1
 484 459 l 1
 236 459 l 1
EndSplineSet
EndChar

StartChar: uni22C9
Encoding: 41 8905 41
Width: 720
Flags: W
HStem: 0 21G<554.093 594> 530 20G<554.093 594>
VStem: 90 86<151 399>
LayerCount: 2
Back
Fore
SplineSet
176 31 m 1
 90 54 l 1
 90 496 l 1
 176 519 l 1
 360 335 l 1
 574 550 l 1
 635 489 l 1
 421 275 l 1
 635 61 l 1
 574 0 l 1
 360 215 l 1
 176 31 l 1
176 151 m 1
 300 275 l 1
 176 399 l 1
 176 151 l 1
EndSplineSet
EndChar

StartChar: uni22C8
Encoding: 42 8904 42
Width: 720
Flags: W
VStem: 90 86<151 399> 544 86<151 399>
LayerCount: 2
Back
Fore
SplineSet
176 31 m 1
 90 54 l 1
 90 496 l 1
 176 519 l 1
 360 335 l 1
 544 519 l 1
 630 496 l 1
 630 54 l 1
 544 31 l 1
 360 215 l 1
 176 31 l 1
544 399 m 1
 420 275 l 1
 544 151 l 1
 544 399 l 1
176 151 m 1
 300 275 l 1
 176 399 l 1
 176 151 l 1
EndSplineSet
EndChar

StartChar: uni29D6
Encoding: 43 10710 43
Width: 720
Flags: W
HStem: 5 86<236 484> 459 86<236 484>
LayerCount: 2
Back
Fore
SplineSet
604 91 m 1
 581 5 l 1
 139 5 l 1
 116 91 l 1
 300 275 l 1
 116 459 l 1
 139 545 l 1
 581 545 l 1
 604 459 l 1
 420 275 l 1
 604 91 l 1
236 459 m 1
 360 335 l 1
 484 459 l 1
 236 459 l 1
484 91 m 1
 360 215 l 1
 236 91 l 1
 484 91 l 1
EndSplineSet
EndChar

StartChar: sym006
Encoding: 44 -1 44
Width: 720
Flags: W
HStem: 232 86<342 630>
LayerCount: 2
Back
Fore
SplineSet
138 522 m 1
 206 454 274 386 342 318 c 1
 630 318 l 1
 630 232 l 1
 342 232 l 1
 274 164 206 96 138 28 c 1
 77 89 l 1
 263 275 l 1
 77 461 l 1
 138 522 l 1
EndSplineSet
EndChar

StartChar: sym007
Encoding: 45 -1 45
Width: 720
Flags: W
HStem: -8 21G<154 194 526 566> 525 20G<317 403>
VStem: 317 86<257 545>
LayerCount: 2
Back
Fore
SplineSet
113 53 m 1
 181 121 249 189 317 257 c 1
 317 545 l 1
 403 545 l 1
 403 257 l 1
 471 189 539 121 607 53 c 1
 546 -8 l 1
 360 178 l 1
 174 -8 l 1
 113 53 l 1
EndSplineSet
EndChar

StartChar: sym008
Encoding: 46 -1 46
Width: 720
Flags: W
HStem: 232 86<90 378>
LayerCount: 2
Back
Fore
SplineSet
582 28 m 1
 514 96 446 164 378 232 c 1
 90 232 l 1
 90 318 l 1
 378 318 l 1
 446 386 514 454 582 522 c 1
 643 461 l 1
 457 275 l 1
 643 89 l 1
 582 28 l 1
EndSplineSet
EndChar

StartChar: sym009
Encoding: 47 -1 47
Width: 720
Flags: W
VStem: 317 86<5 293>
LayerCount: 2
Back
Fore
SplineSet
607 497 m 1
 539 429 471 361 403 293 c 1
 403 5 l 1
 317 5 l 1
 317 293 l 1
 249 361 181 429 113 497 c 1
 174 558 l 1
 360 372 l 1
 546 558 l 1
 607 497 l 1
EndSplineSet
EndChar

StartChar: logicaland
Encoding: 48 8743 48
Width: 720
Flags: W
HStem: 525 20G<322.873 397.127>
LayerCount: 2
Back
Fore
SplineSet
618 41 m 1
 540 5 l 1
 360 398 l 1
 180 5 l 1
 102 41 l 1
 332 545 l 1
 388 545 l 1
 618 41 l 1
EndSplineSet
EndChar

StartChar: logicalor
Encoding: 49 8744 49
Width: 720
Flags: W
HStem: 525 20G<136.667 189.16 530.84 583.333>
LayerCount: 2
Back
Fore
SplineSet
102 509 m 1
 180 545 l 1
 360 152 l 1
 540 545 l 1
 618 509 l 1
 388 5 l 1
 332 5 l 1
 102 509 l 1
EndSplineSet
EndChar

StartChar: uni27D1
Encoding: 50 10193 50
Width: 720
Flags: W
HStem: 24 141<325.132 394.868> 525 20G<322.873 397.127>
VStem: 290 141<60.1323 129.868>
LayerCount: 2
Back
Fore
SplineSet
618 41 m 1
 540 5 l 1
 360 398 l 1
 180 5 l 1
 102 41 l 1
 332 545 l 1
 388 545 l 1
 618 41 l 1
431 95 m 0
 431 81 415 65 402 53 c 0
 390 40 374 24 360 24 c 0
 346 24 330 40 318 53 c 0
 305 65 290 81 290 95 c 0
 290 109 305 125 318 137 c 0
 330 150 346 165 360 165 c 0
 374 165 390 150 402 137 c 0
 415 125 431 109 431 95 c 0
EndSplineSet
EndChar

StartChar: uni27C7
Encoding: 51 10183 51
Width: 720
Flags: W
HStem: 385 141<325.132 394.868> 525 20G<136.667 189.16 530.84 583.333>
VStem: 290 141<420.132 489.868>
LayerCount: 2
Back
Fore
SplineSet
102 509 m 1x60
 180 545 l 1
 360 152 l 1
 540 545 l 1
 618 509 l 1
 388 5 l 1
 332 5 l 1
 102 509 l 1x60
431 455 m 0
 431 441 415 425 402 413 c 0
 390 400 374 385 360 385 c 0
 346 385 330 400 318 413 c 0
 305 425 290 441 290 455 c 0
 290 469 305 485 318 497 c 0
 330 510 346 526 360 526 c 0xa0
 374 526 390 510 402 497 c 0
 415 485 431 469 431 455 c 0
EndSplineSet
EndChar

StartChar: uni2A55
Encoding: 52 10837 52
Width: 960
Flags: W
HStem: 525 20G<322.873 397.109 562.891 637.127>
LayerCount: 2
Back
Fore
SplineSet
858 41 m 1
 780 5 l 1
 600 398 l 1
 527 240 l 1
 618 41 l 1
 540 5 l 1
 480 136 l 1
 420 5 l 1
 342 41 l 1
 433 240 l 1
 360 398 l 1
 180 5 l 1
 102 41 l 1
 332 545 l 1
 388 545 l 1
 480 343 l 1
 572 545 l 1
 628 545 l 1
 858 41 l 1
EndSplineSet
EndChar

StartChar: uni2A56
Encoding: 53 10838 53
Width: 960
Flags: W
HStem: 525 20G<136.667 189.16 376.667 429.16 530.84 583.333 770.84 823.333>
LayerCount: 2
Back
Fore
SplineSet
342 509 m 1
 420 545 l 1
 480 414 l 1
 540 545 l 1
 618 509 l 1
 527 310 l 1
 600 152 l 1
 780 545 l 1
 858 509 l 1
 628 5 l 1
 572 5 l 1
 480 207 l 1
 388 5 l 1
 332 5 l 1
 102 509 l 1
 180 545 l 1
 360 152 l 1
 433 310 l 1
 342 509 l 1
EndSplineSet
EndChar

StartChar: uni22CF
Encoding: 54 8911 54
Width: 720
Flags: W
HStem: 525 20G<317 403>
VStem: 317 86<364.707 545>
LayerCount: 2
Back
Fore
SplineSet
360 285 m 1
 318 180 247 84 162 5 c 1
 104 68 l 1
 227 183 317 334 317 502 c 2
 317 545 l 1
 403 545 l 1
 403 502 l 2
 403 334 493 183 616 68 c 1
 558 5 l 1
 473 84 402 180 360 285 c 1
EndSplineSet
EndChar

StartChar: uni22CE
Encoding: 55 8910 55
Width: 720
Flags: W
HStem: 525 20G<143.587 204.5 515.5 576.413>
VStem: 317 86<5 185.293>
LayerCount: 2
Back
Fore
SplineSet
360 265 m 1
 402 370 473 466 558 545 c 1
 616 482 l 1
 493 367 403 216 403 48 c 2
 403 5 l 1
 317 5 l 1
 317 48 l 2
 317 216 227 367 104 482 c 1
 162 545 l 1
 247 466 318 370 360 265 c 1
EndSplineSet
EndChar

StartChar: uni22BC
Encoding: 56 8892 56
Width: 720
Flags: W
HStem: 527 86<90 630>
LayerCount: 2
Back
Fore
SplineSet
618 -27 m 1
 540 -63 l 1
 360 331 l 1
 180 -63 l 1
 102 -27 l 1
 332 478 l 1
 388 478 l 1
 618 -27 l 1
90 527 m 1
 90 613 l 1
 630 613 l 1
 630 527 l 1
 90 527 l 1
EndSplineSet
EndChar

StartChar: uni22BB
Encoding: 57 8891 57
Width: 720
Flags: W
HStem: -63 86<90 630>
LayerCount: 2
Back
Fore
SplineSet
102 577 m 1
 180 613 l 1
 360 219 l 1
 540 613 l 1
 618 577 l 1
 388 72 l 1
 332 72 l 1
 102 577 l 1
90 -63 m 1
 90 23 l 1
 630 23 l 1
 630 -63 l 1
 90 -63 l 1
EndSplineSet
EndChar

StartChar: uni2A5E
Encoding: 58 10846 58
Width: 720
Flags: W
HStem: 459 86<90 630> 594 86<90 630>
LayerCount: 2
Back
Fore
SplineSet
618 -94 m 1
 540 -130 l 1
 360 263 l 1
 180 -130 l 1
 102 -94 l 1
 332 410 l 1
 388 410 l 1
 618 -94 l 1
90 459 m 1
 90 545 l 1
 630 545 l 1
 630 459 l 1
 90 459 l 1
90 594 m 1
 90 680 l 1
 630 680 l 1
 630 594 l 1
 90 594 l 1
EndSplineSet
EndChar

StartChar: uni2A63
Encoding: 59 10851 59
Width: 720
Flags: W
HStem: -130 86<90 630> 5 86<90 630>
LayerCount: 2
Back
Fore
SplineSet
102 644 m 1
 180 680 l 1
 360 287 l 1
 540 680 l 1
 618 644 l 1
 388 140 l 1
 332 140 l 1
 102 644 l 1
90 5 m 1
 90 91 l 1
 630 91 l 1
 630 5 l 1
 90 5 l 1
90 -130 m 1
 90 -44 l 1
 630 -44 l 1
 630 -130 l 1
 90 -130 l 1
EndSplineSet
EndChar

StartChar: union
Encoding: 60 8746 60
Width: 720
Flags: W
HStem: 5 86<263.843 456.157> 525 20G<90 176 544 630>
VStem: 90 86<168.293 545> 544 86<168.293 545>
LayerCount: 2
Back
Fore
SplineSet
176 545 m 1
 176 234 l 2
 176 146 265 91 360 91 c 0
 455 91 544 146 544 234 c 2
 544 545 l 1
 630 545 l 1
 630 234 l 2
 630 99 502 5 360 5 c 0
 218 5 90 99 90 234 c 2
 90 545 l 1
 176 545 l 1
EndSplineSet
EndChar

StartChar: intersection
Encoding: 61 8745 61
Width: 720
Flags: W
HStem: 459 86<263.843 456.157>
VStem: 90 86<5 381.707> 544 86<5 381.707>
LayerCount: 2
Back
Fore
SplineSet
544 5 m 1
 544 316 l 2
 544 404 455 459 360 459 c 0
 265 459 176 404 176 316 c 2
 176 5 l 1
 90 5 l 1
 90 316 l 2
 90 451 218 545 360 545 c 0
 502 545 630 451 630 316 c 2
 630 5 l 1
 544 5 l 1
EndSplineSet
EndChar

StartChar: uni22D3
Encoding: 62 8915 62
Width: 900
Flags: W
HStem: -85 86<336.395 563.605> 125 86<383.043 516.957>
VStem: 90 86<137.315 635> 275 86<233.034 635> 539 86<233.034 635> 724 86<137.315 635>
LayerCount: 2
Back
Fore
SplineSet
361 635 m 1
 361 276 l 2
 361 235 405 211 450 211 c 0
 495 211 539 235 539 276 c 2
 539 635 l 1
 625 635 l 1
 625 276 l 2
 625 188 543 125 450 125 c 0
 357 125 275 188 275 276 c 2
 275 635 l 1
 361 635 l 1
176 635 m 1
 176 223 l 2
 176 90 307 1 450 1 c 0
 593 1 724 90 724 223 c 2
 724 635 l 1
 810 635 l 1
 810 223 l 2
 810 43 640 -85 450 -85 c 0
 260 -85 90 43 90 223 c 2
 90 635 l 1
 176 635 l 1
EndSplineSet
EndChar

StartChar: uni22D2
Encoding: 63 8914 63
Width: 900
Flags: W
HStem: 339 86<383.043 516.957> 549 86<336.395 563.605>
VStem: 90 86<-85 412.685> 275 86<-85 316.966> 539 86<-85 316.966> 724 86<-85 412.685>
LayerCount: 2
Back
Fore
SplineSet
539 -85 m 1
 539 274 l 2
 539 315 495 339 450 339 c 0
 405 339 361 315 361 274 c 2
 361 -85 l 1
 275 -85 l 1
 275 274 l 2
 275 362 357 425 450 425 c 0
 543 425 625 362 625 274 c 2
 625 -85 l 1
 539 -85 l 1
724 -85 m 1
 724 327 l 2
 724 460 593 549 450 549 c 0
 307 549 176 460 176 327 c 2
 176 -85 l 1
 90 -85 l 1
 90 327 l 2
 90 507 260 635 450 635 c 0
 640 635 810 507 810 327 c 2
 810 -85 l 1
 724 -85 l 1
EndSplineSet
EndChar

StartChar: uni228D
Encoding: 64 8845 64
Width: 720
Flags: W
HStem: 5 86<263.843 456.157> 295 141<325.132 394.868> 525 20G<90 176 544 630>
VStem: 90 86<168.293 545> 290 141<330.132 399.868> 544 86<168.293 545>
LayerCount: 2
Back
Fore
SplineSet
176 545 m 1
 176 234 l 2
 176 146 265 91 360 91 c 0
 455 91 544 146 544 234 c 2
 544 545 l 1
 630 545 l 1
 630 234 l 2
 630 99 502 5 360 5 c 0
 218 5 90 99 90 234 c 2
 90 545 l 1
 176 545 l 1
431 365 m 0
 431 351 415 335 402 323 c 0
 390 310 374 295 360 295 c 0
 346 295 330 310 318 323 c 0
 305 335 290 351 290 365 c 0
 290 379 305 395 318 407 c 0
 330 420 346 436 360 436 c 0
 374 436 390 420 402 407 c 0
 415 395 431 379 431 365 c 0
EndSplineSet
EndChar

StartChar: uni2A40
Encoding: 65 10816 65
Width: 720
Flags: W
HStem: 114 141<325.132 394.868> 459 86<263.843 456.157>
VStem: 90 86<5 381.707> 290 141<150.132 219.868> 544 86<5 381.707>
LayerCount: 2
Back
Fore
SplineSet
544 5 m 1
 544 316 l 2
 544 404 455 459 360 459 c 0
 265 459 176 404 176 316 c 2
 176 5 l 1
 90 5 l 1
 90 316 l 2
 90 451 218 545 360 545 c 0
 502 545 630 451 630 316 c 2
 630 5 l 1
 544 5 l 1
431 185 m 0
 431 171 415 155 402 143 c 0
 390 130 374 114 360 114 c 0
 346 114 330 130 318 143 c 0
 305 155 290 171 290 185 c 0
 290 199 305 215 318 227 c 0
 330 240 346 255 360 255 c 0
 374 255 390 240 402 227 c 0
 415 215 431 199 431 185 c 0
EndSplineSet
EndChar

StartChar: uni228E
Encoding: 66 8846 66
Width: 720
Flags: W
HStem: 5 86<263.843 456.157> 322 86<227 317 403 493> 525 20G<90 176 544 630>
VStem: 90 86<168.293 545> 317 86<232 322 408 498> 544 86<168.293 545>
CounterMasks: 1 1c
LayerCount: 2
Back
Fore
SplineSet
176 545 m 1
 176 234 l 2
 176 146 265 91 360 91 c 0
 455 91 544 146 544 234 c 2
 544 545 l 1
 630 545 l 1
 630 234 l 2
 630 99 502 5 360 5 c 0
 218 5 90 99 90 234 c 2
 90 545 l 1
 176 545 l 1
317 498 m 1
 403 498 l 1
 403 408 l 1
 493 408 l 1
 493 322 l 1
 403 322 l 1
 403 232 l 1
 317 232 l 1
 317 322 l 1
 227 322 l 1
 227 408 l 1
 317 408 l 1
 317 498 l 1
EndSplineSet
EndChar

StartChar: sym00A
Encoding: 67 -1 67
Width: 720
Flags: W
HStem: 142 86<227 317 403 493> 459 86<263.843 456.157>
VStem: 90 86<5 381.707> 317 86<52 142 228 318> 544 86<5 381.707>
CounterMasks: 1 38
LayerCount: 2
Back
Fore
SplineSet
544 5 m 1
 544 316 l 2
 544 404 455 459 360 459 c 0
 265 459 176 404 176 316 c 2
 176 5 l 1
 90 5 l 1
 90 316 l 2
 90 451 218 545 360 545 c 0
 502 545 630 451 630 316 c 2
 630 5 l 1
 544 5 l 1
317 318 m 1
 403 318 l 1
 403 228 l 1
 493 228 l 1
 493 142 l 1
 403 142 l 1
 403 52 l 1
 317 52 l 1
 317 142 l 1
 227 142 l 1
 227 228 l 1
 317 228 l 1
 317 318 l 1
EndSplineSet
EndChar

StartChar: uni2294
Encoding: 68 8852 68
Width: 720
Flags: W
HStem: 5 86<176 544> 525 20G<90 176 544 630>
VStem: 90 86<91 545> 544 86<91 545>
LayerCount: 2
Back
Fore
SplineSet
90 545 m 1
 176 545 l 1
 176 91 l 1
 544 91 l 1
 544 545 l 1
 630 545 l 1
 630 5 l 1
 90 5 l 1
 90 545 l 1
EndSplineSet
EndChar

StartChar: uni2293
Encoding: 69 8851 69
Width: 720
Flags: W
HStem: 459 86<176 544>
VStem: 90 86<5 459> 544 86<5 459>
LayerCount: 2
Back
Fore
SplineSet
176 5 m 1
 90 5 l 1
 90 545 l 1
 630 545 l 1
 630 5 l 1
 544 5 l 1
 544 459 l 1
 176 459 l 1
 176 5 l 1
EndSplineSet
EndChar

StartChar: uni2A4F
Encoding: 70 10831 70
Width: 900
Flags: W
HStem: -85 86<176 724> 100 86<343 557>
VStem: 90 86<1 635> 257 86<186 635> 557 86<186 635> 724 86<1 635>
LayerCount: 2
Back
Fore
SplineSet
90 635 m 1
 176 635 l 1
 176 1 l 1
 724 1 l 1
 724 635 l 1
 810 635 l 1
 810 -85 l 1
 90 -85 l 1
 90 635 l 1
257 635 m 1
 343 635 l 1
 343 186 l 1
 557 186 l 1
 557 635 l 1
 643 635 l 1
 643 100 l 1
 257 100 l 1
 257 635 l 1
EndSplineSet
EndChar

StartChar: uni2A4E
Encoding: 71 10830 71
Width: 900
Flags: W
HStem: 364 86<343 557> 549 86<176 724>
VStem: 90 86<-85 549> 257 86<-85 364> 557 86<-85 364> 724 86<-85 549>
LayerCount: 2
Back
Fore
SplineSet
176 -85 m 1
 90 -85 l 1
 90 635 l 1
 810 635 l 1
 810 -85 l 1
 724 -85 l 1
 724 549 l 1
 176 549 l 1
 176 -85 l 1
343 -85 m 1
 257 -85 l 1
 257 450 l 1
 643 450 l 1
 643 -85 l 1
 557 -85 l 1
 557 364 l 1
 343 364 l 1
 343 -85 l 1
EndSplineSet
EndChar

StartChar: sym00B
Encoding: 72 -1 72
Width: 720
Flags: W
HStem: 5 86<176 544> 295 141<325.132 394.868> 525 20G<90 176 544 630>
VStem: 90 86<91 545> 290 141<330.132 399.868> 544 86<91 545>
LayerCount: 2
Back
Fore
SplineSet
90 545 m 1
 176 545 l 1
 176 91 l 1
 544 91 l 1
 544 545 l 1
 630 545 l 1
 630 5 l 1
 90 5 l 1
 90 545 l 1
431 365 m 0
 431 351 415 335 402 323 c 0
 390 310 374 295 360 295 c 0
 346 295 330 310 318 323 c 0
 305 335 290 351 290 365 c 0
 290 379 305 395 318 407 c 0
 330 420 346 436 360 436 c 0
 374 436 390 420 402 407 c 0
 415 395 431 379 431 365 c 0
EndSplineSet
EndChar

StartChar: sym00C
Encoding: 73 -1 73
Width: 720
Flags: W
HStem: 114 141<325.132 394.868> 459 86<176 544>
VStem: 90 86<5 459> 290 141<150.132 219.868> 544 86<5 459>
LayerCount: 2
Back
Fore
SplineSet
176 5 m 1
 90 5 l 1
 90 545 l 1
 630 545 l 1
 630 5 l 1
 544 5 l 1
 544 459 l 1
 176 459 l 1
 176 5 l 1
431 185 m 0
 431 171 415 155 402 143 c 0
 390 130 374 114 360 114 c 0
 346 114 330 130 318 143 c 0
 305 155 290 171 290 185 c 0
 290 199 305 215 318 227 c 0
 330 240 346 255 360 255 c 0
 374 255 390 240 402 227 c 0
 415 215 431 199 431 185 c 0
EndSplineSet
EndChar

StartChar: sym00D
Encoding: 74 -1 74
Width: 720
Flags: W
HStem: 5 86<176 544> 322 86<227 317 403 493> 525 20G<90 176 544 630>
VStem: 90 86<91 545> 317 86<232 322 408 498> 544 86<91 545>
CounterMasks: 1 1c
LayerCount: 2
Back
Fore
SplineSet
90 545 m 1
 176 545 l 1
 176 91 l 1
 544 91 l 1
 544 545 l 1
 630 545 l 1
 630 5 l 1
 90 5 l 1
 90 545 l 1
317 498 m 1
 403 498 l 1
 403 408 l 1
 493 408 l 1
 493 322 l 1
 403 322 l 1
 403 232 l 1
 317 232 l 1
 317 322 l 1
 227 322 l 1
 227 408 l 1
 317 408 l 1
 317 498 l 1
EndSplineSet
EndChar

StartChar: sym00E
Encoding: 75 -1 75
Width: 720
Flags: W
HStem: 142 86<227 317 403 493> 459 86<176 544>
VStem: 90 86<5 459> 317 86<52 142 228 318> 544 86<5 459>
CounterMasks: 1 38
LayerCount: 2
Back
Fore
SplineSet
176 5 m 1
 90 5 l 1
 90 545 l 1
 630 545 l 1
 630 5 l 1
 544 5 l 1
 544 459 l 1
 176 459 l 1
 176 5 l 1
317 318 m 1
 403 318 l 1
 403 228 l 1
 493 228 l 1
 493 142 l 1
 403 142 l 1
 403 52 l 1
 317 52 l 1
 317 142 l 1
 227 142 l 1
 227 228 l 1
 317 228 l 1
 317 318 l 1
EndSplineSet
EndChar

StartChar: uni27D3
Encoding: 76 10195 76
Width: 720
Flags: W
HStem: 5 86<90 544> 204 142<325.132 394.868> 525 20G<544 630>
VStem: 290 141<240.132 309.868> 544 86<91 545>
LayerCount: 2
Back
Fore
SplineSet
90 5 m 1
 90 91 l 1
 544 91 l 1
 544 545 l 1
 630 545 l 1
 630 365 630 185 630 5 c 1
 450 5 270 5 90 5 c 1
431 275 m 0
 431 261 415 245 402 233 c 0
 390 220 374 204 360 204 c 0
 346 204 330 220 318 233 c 0
 305 245 290 261 290 275 c 0
 290 289 305 305 318 317 c 0
 330 330 346 346 360 346 c 0
 374 346 390 330 402 317 c 0
 415 305 431 289 431 275 c 0
EndSplineSet
EndChar

StartChar: uni27D4
Encoding: 77 10196 77
Width: 720
Flags: W
HStem: 204 142<325.132 394.868> 459 86<176 630>
VStem: 90 86<5 459> 290 141<240.132 309.868>
LayerCount: 2
Back
Fore
SplineSet
630 545 m 1
 630 459 l 1
 176 459 l 1
 176 5 l 1
 90 5 l 1
 90 185 90 365 90 545 c 1
 270 545 450 545 630 545 c 1
431 275 m 0
 431 261 415 245 402 233 c 0
 390 220 374 204 360 204 c 0
 346 204 330 220 318 233 c 0
 305 245 290 261 290 275 c 0
 290 289 305 305 318 317 c 0
 330 330 346 346 360 346 c 0
 374 346 390 330 402 317 c 0
 415 305 431 289 431 275 c 0
EndSplineSet
EndChar

StartChar: uni25B9
Encoding: 78 9657 78
Width: 669
Flags: W
HStem: -7 21G<90 124.681> 537 20G<90 124.681>
VStem: 90 86<142 408>
LayerCount: 2
Back
Fore
SplineSet
579 275 m 1
 90 -7 l 1
 90 557 l 1
 579 275 l 1
407 275 m 1
 176 408 l 1
 176 142 l 1
 407 275 l 1
EndSplineSet
EndChar

StartChar: uni25B5
Encoding: 79 9653 79
Width: 745
Flags: W
HStem: 30 86<239 506>
LayerCount: 2
Back
Fore
SplineSet
372 520 m 1
 655 30 l 1
 90 30 l 1
 372 520 l 1
372 348 m 1
 239 116 l 1
 506 116 l 1
 372 348 l 1
EndSplineSet
EndChar

StartChar: uni25C3
Encoding: 80 9667 80
Width: 669
Flags: W
HStem: -7 21G<544.319 579> 537 20G<544.319 579>
VStem: 493 86<142 408>
LayerCount: 2
Back
Fore
SplineSet
90 275 m 1
 579 557 l 1
 579 -7 l 1
 90 275 l 1
262 275 m 1
 493 142 l 1
 493 408 l 1
 262 275 l 1
EndSplineSet
EndChar

StartChar: uni25BF
Encoding: 81 9663 81
Width: 745
Flags: W
HStem: 434 86<239 506>
LayerCount: 2
Back
Fore
SplineSet
372 30 m 1
 90 520 l 1
 655 520 l 1
 372 30 l 1
372 202 m 1
 506 434 l 1
 239 434 l 1
 372 202 l 1
EndSplineSet
EndChar

StartChar: uni25B8
Encoding: 82 9656 82
Width: 669
Flags: W
HStem: -7 21G<90 124.681> 537 20G<90 124.681>
LayerCount: 2
Back
Fore
SplineSet
579 275 m 1
 90 -7 l 1
 90 557 l 1
 579 275 l 1
EndSplineSet
EndChar

StartChar: uni25B4
Encoding: 83 9652 83
Width: 745
Flags: W
LayerCount: 2
Back
Fore
SplineSet
372 520 m 1
 655 30 l 1
 90 30 l 1
 372 520 l 1
EndSplineSet
EndChar

StartChar: uni25C2
Encoding: 84 9666 84
Width: 669
Flags: W
HStem: -7 21G<544.319 579> 537 20G<544.319 579>
LayerCount: 2
Back
Fore
SplineSet
90 275 m 1
 579 557 l 1
 579 -7 l 1
 90 275 l 1
EndSplineSet
EndChar

StartChar: uni25BE
Encoding: 85 9662 85
Width: 745
Flags: W
LayerCount: 2
Back
Fore
SplineSet
372 30 m 1
 90 520 l 1
 655 520 l 1
 372 30 l 1
EndSplineSet
EndChar

StartChar: uni25B7
Encoding: 86 9655 86
Width: 872
Flags: W
VStem: 90 86<25 525>
LayerCount: 2
Back
Fore
SplineSet
782 275 m 1
 90 -124 l 1
 90 674 l 1
 782 275 l 1
610 275 m 1
 176 525 l 1
 176 25 l 1
 610 275 l 1
EndSplineSet
EndChar

StartChar: uni25B3
Encoding: 87 9651 87
Width: 978
Flags: W
HStem: -71 86<239 740>
LayerCount: 2
Back
Fore
SplineSet
489 621 m 1
 888 -71 l 1
 90 -71 l 1
 489 621 l 1
489 449 m 1
 239 15 l 1
 740 15 l 1
 489 449 l 1
EndSplineSet
EndChar

StartChar: uni25C1
Encoding: 88 9665 88
Width: 872
Flags: W
VStem: 696 86<25 525>
LayerCount: 2
Back
Fore
SplineSet
90 275 m 1
 782 674 l 1
 782 -124 l 1
 90 275 l 1
262 275 m 1
 696 25 l 1
 696 525 l 1
 262 275 l 1
EndSplineSet
EndChar

StartChar: uni25BD
Encoding: 89 9661 89
Width: 978
Flags: W
HStem: 535 86<239 740>
LayerCount: 2
Back
Fore
SplineSet
489 -71 m 1
 90 621 l 1
 888 621 l 1
 489 -71 l 1
489 101 m 1
 740 535 l 1
 239 535 l 1
 489 101 l 1
EndSplineSet
EndChar

StartChar: uni25B6
Encoding: 90 9654 90
Width: 872
Flags: W
LayerCount: 2
Back
Fore
SplineSet
782 275 m 1
 90 -124 l 1
 90 674 l 1
 782 275 l 1
EndSplineSet
EndChar

StartChar: uni25B2
Encoding: 91 9650 91
Width: 978
Flags: W
LayerCount: 2
Back
Fore
SplineSet
489 621 m 1
 888 -71 l 1
 90 -71 l 1
 489 621 l 1
EndSplineSet
EndChar

StartChar: uni25C0
Encoding: 92 9664 92
Width: 872
Flags: W
LayerCount: 2
Back
Fore
SplineSet
90 275 m 1
 782 674 l 1
 782 -124 l 1
 90 275 l 1
EndSplineSet
EndChar

StartChar: uni25BC
Encoding: 93 9660 93
Width: 978
Flags: W
LayerCount: 2
Back
Fore
SplineSet
489 -71 m 1
 90 621 l 1
 888 621 l 1
 489 -71 l 1
EndSplineSet
EndChar

StartChar: sym00F
Encoding: 94 -1 94
Width: 1264
Flags: W
HStem: -195 86<239 1025>
LayerCount: 2
Back
Fore
SplineSet
632 745 m 1
 1174 -195 l 1
 90 -195 l 1
 632 745 l 1
632 573 m 1
 239 -109 l 1
 1025 -109 l 1
 632 573 l 1
EndSplineSet
EndChar

StartChar: sym010
Encoding: 95 -1 95
Width: 1264
Flags: W
HStem: 659 86<239 1025>
LayerCount: 2
Back
Fore
SplineSet
632 -195 m 1
 90 745 l 1
 1174 745 l 1
 632 -195 l 1
632 -23 m 1
 1025 659 l 1
 239 659 l 1
 632 -23 l 1
EndSplineSet
EndChar

StartChar: openbullet
Encoding: 96 9702 96
Width: 564
Flags: W
HStem: 83 86<219.079 344.921> 381 86<219.079 344.921>
VStem: 90 86<212.079 337.921> 388 86<212.079 337.921>
LayerCount: 2
Back
Fore
SplineSet
474 275 m 0
 474 224 454 175 418 139 c 0
 382 103 333 83 282 83 c 0
 231 83 182 103 146 139 c 0
 110 175 90 224 90 275 c 0
 90 326 110 375 146 411 c 0
 182 447 231 467 282 467 c 0
 333 467 382 447 418 411 c 0
 454 375 474 326 474 275 c 0
282 169 m 0
 340 169 388 217 388 275 c 0
 388 333 340 381 282 381 c 0
 224 381 176 333 176 275 c 0
 176 217 224 169 282 169 c 0
EndSplineSet
EndChar

StartChar: bullet
Encoding: 97 8226 97
Width: 564
Flags: W
HStem: 83 384<193.483 370.517>
VStem: 90 384<186.483 363.517>
LayerCount: 2
Back
Fore
SplineSet
474 275 m 0
 474 224 454 175 418 139 c 0
 382 103 333 83 282 83 c 0
 231 83 182 103 146 139 c 0
 110 175 90 224 90 275 c 0
 90 326 110 375 146 411 c 0
 182 447 231 467 282 467 c 0
 333 467 382 447 418 411 c 0
 454 375 474 326 474 275 c 0
EndSplineSet
EndChar

StartChar: circle
Encoding: 98 9675 98
Width: 780
Flags: W
HStem: -25 86<298.605 481.395> 489 86<298.605 481.395>
VStem: 90 86<183.605 366.395> 604 86<183.605 366.395>
LayerCount: 2
Back
Fore
SplineSet
690 275 m 0
 690 195 658 119 602 63 c 0
 546 7 470 -25 390 -25 c 0
 310 -25 234 7 178 63 c 0
 122 119 90 195 90 275 c 0
 90 355 122 431 178 487 c 0
 234 543 310 575 390 575 c 0
 470 575 546 543 602 487 c 0
 658 431 690 355 690 275 c 0
390 61 m 0
 506 61 604 159 604 275 c 0
 604 391 506 489 390 489 c 0
 274 489 176 391 176 275 c 0
 176 159 274 61 390 61 c 0
EndSplineSet
EndChar

StartChar: uni25CF
Encoding: 99 9679 99
Width: 780
Flags: W
HStem: -25 600<278.384 501.616>
VStem: 90 600<163.384 386.616>
LayerCount: 2
Back
Fore
SplineSet
690 275 m 0
 690 195 658 119 602 63 c 0
 546 7 470 -25 390 -25 c 0
 310 -25 234 7 178 63 c 0
 122 119 90 195 90 275 c 0
 90 355 122 431 178 487 c 0
 234 543 310 575 390 575 c 0
 470 575 546 543 602 487 c 0
 658 431 690 355 690 275 c 0
EndSplineSet
EndChar

StartChar: uni2296
Encoding: 100 8854 100
Width: 780
Flags: W
HStem: -25 86<299.036 480.964> 232 86<180 600> 489 86<299.036 480.964>
CounterMasks: 1 e0
LayerCount: 2
Back
Fore
SplineSet
600 318 m 1
 581 411 494 489 390 489 c 0
 286 489 199 411 180 318 c 1
 600 318 l 1
180 232 m 1
 199 139 286 61 390 61 c 0
 494 61 581 139 600 232 c 1
 180 232 l 1
690 275 m 0
 690 195 658 119 602 63 c 0
 546 7 470 -25 390 -25 c 0
 310 -25 234 7 178 63 c 0
 122 119 90 195 90 275 c 0
 90 355 122 431 178 487 c 0
 234 543 310 575 390 575 c 0
 470 575 546 543 602 487 c 0
 658 431 690 355 690 275 c 0
EndSplineSet
EndChar

StartChar: uni29B6
Encoding: 101 10678 101
Width: 780
Flags: W
VStem: 90 86<184.036 365.964> 347 86<65 485> 604 86<184.036 365.964>
CounterMasks: 1 e0
LayerCount: 2
Back
Fore
SplineSet
347 485 m 1
 254 466 176 379 176 275 c 0
 176 171 254 84 347 65 c 1
 347 485 l 1
690 275 m 0
 690 195 658 119 602 63 c 0
 546 7 470 -25 390 -25 c 0
 310 -25 234 7 178 63 c 0
 122 119 90 195 90 275 c 0
 90 355 122 431 178 487 c 0
 234 543 310 575 390 575 c 0
 470 575 546 543 602 487 c 0
 658 431 690 355 690 275 c 0
433 65 m 1
 526 84 604 171 604 275 c 0
 604 379 526 466 433 485 c 1
 433 65 l 1
EndSplineSet
EndChar

StartChar: uni2298
Encoding: 102 8856 102
Width: 780
Flags: W
HStem: -25 86<298.715 481.395> 489 86<298.605 481.285>
VStem: 90 86<183.715 366.395> 604 86<183.605 366.285>
LayerCount: 2
Back
Fore
SplineSet
390 489 m 0
 274 489 176 391 176 275 c 0
 176 233 189 193 212 158 c 1
 507 453 l 1
 472 476 432 489 390 489 c 0
390 61 m 0
 506 61 604 159 604 275 c 0
 604 317 591 357 568 392 c 1
 273 97 l 1
 308 74 348 61 390 61 c 0
690 275 m 0
 690 195 658 119 602 63 c 0
 546 7 470 -25 390 -25 c 0
 310 -25 234 7 178 63 c 0
 122 119 90 195 90 275 c 0
 90 355 122 431 178 487 c 0
 234 543 310 575 390 575 c 0
 470 575 546 543 602 487 c 0
 658 431 690 355 690 275 c 0
EndSplineSet
EndChar

StartChar: uni29B8
Encoding: 103 10680 103
Width: 780
Flags: W
HStem: -25 86<298.605 481.285> 489 86<298.715 481.395>
VStem: 90 86<183.605 366.285> 604 86<183.715 366.395>
LayerCount: 2
Back
Fore
SplineSet
176 275 m 0
 176 159 274 61 390 61 c 0
 432 61 472 74 507 97 c 1
 212 392 l 1
 189 357 176 317 176 275 c 0
690 275 m 0
 690 195 658 119 602 63 c 0
 546 7 470 -25 390 -25 c 0
 310 -25 234 7 178 63 c 0
 122 119 90 195 90 275 c 0
 90 355 122 431 178 487 c 0
 234 543 310 575 390 575 c 0
 470 575 546 543 602 487 c 0
 658 431 690 355 690 275 c 0
604 275 m 0
 604 391 506 489 390 489 c 0
 348 489 308 476 273 453 c 1
 568 158 l 1
 591 193 604 233 604 275 c 0
EndSplineSet
EndChar

StartChar: circleplus
Encoding: 104 8853 104
Width: 780
Flags: W
HStem: 232 86<180 347 433 600>
VStem: 347 86<65 232 318 485>
LayerCount: 2
Back
Fore
SplineSet
347 318 m 1
 347 485 l 1
 265 468 197 400 180 318 c 1
 347 318 l 1
433 318 m 1
 600 318 l 1
 583 400 515 468 433 485 c 1
 433 318 l 1
347 232 m 1
 180 232 l 1
 197 150 265 82 347 65 c 1
 347 232 l 1
433 232 m 1
 433 65 l 1
 515 82 583 150 600 232 c 1
 433 232 l 1
690 275 m 0
 690 195 658 119 602 63 c 0
 546 7 470 -25 390 -25 c 0
 310 -25 234 7 178 63 c 0
 122 119 90 195 90 275 c 0
 90 355 122 431 178 487 c 0
 234 543 310 575 390 575 c 0
 470 575 546 543 602 487 c 0
 658 431 690 355 690 275 c 0
EndSplineSet
EndChar

StartChar: circlemultiply
Encoding: 105 8855 105
Width: 780
Flags: W
HStem: -25 86<298.715 481.285> 489 86<298.715 481.285>
VStem: 90 86<183.715 366.285> 604 86<183.715 366.285>
LayerCount: 2
Back
Fore
SplineSet
390 214 m 1
 273 97 l 1
 308 74 348 61 390 61 c 0
 432 61 472 74 507 97 c 1
 390 214 l 1
451 275 m 1
 568 158 l 1
 591 193 604 233 604 275 c 0
 604 317 591 357 568 392 c 1
 451 275 l 1
329 275 m 1
 212 392 l 1
 189 357 176 317 176 275 c 0
 176 233 189 193 212 158 c 1
 329 275 l 1
390 336 m 1
 507 453 l 1
 472 476 432 489 390 489 c 0
 348 489 308 476 273 453 c 1
 390 336 l 1
690 275 m 0
 690 195 658 119 602 63 c 0
 546 7 470 -25 390 -25 c 0
 310 -25 234 7 178 63 c 0
 122 119 90 195 90 275 c 0
 90 355 122 431 178 487 c 0
 234 543 310 575 390 575 c 0
 470 575 546 543 602 487 c 0
 658 431 690 355 690 275 c 0
EndSplineSet
EndChar

StartChar: uni2299
Encoding: 106 8857 106
Width: 780
Flags: W
HStem: -25 86<298.605 481.395> 181 188<350.251 429.749> 489 86<298.605 481.395>
VStem: 90 86<183.605 366.395> 296 188<235.251 314.749> 604 86<183.605 366.395>
CounterMasks: 1 fc
LayerCount: 2
Back
Fore
SplineSet
690 275 m 0
 690 195 658 119 602 63 c 0
 546 7 470 -25 390 -25 c 0
 310 -25 234 7 178 63 c 0
 122 119 90 195 90 275 c 0
 90 355 122 431 178 487 c 0
 234 543 310 575 390 575 c 0
 470 575 546 543 602 487 c 0
 658 431 690 355 690 275 c 0
390 61 m 0
 506 61 604 159 604 275 c 0
 604 391 506 489 390 489 c 0
 274 489 176 391 176 275 c 0
 176 159 274 61 390 61 c 0
484 275 m 0
 484 256 463 235 446 219 c 0
 430 202 409 181 390 181 c 0
 371 181 350 202 334 219 c 0
 317 235 296 256 296 275 c 0
 296 294 317 315 334 331 c 0
 350 348 371 369 390 369 c 0
 409 369 430 348 446 331 c 0
 463 315 484 294 484 275 c 0
EndSplineSet
EndChar

StartChar: uni229A
Encoding: 107 8858 107
Width: 780
Flags: W
HStem: -25 86<298.605 481.395> 129 86<346.102 433.898> 335 86<346.102 433.898> 489 86<298.605 481.395>
VStem: 90 86<183.605 366.395> 244 86<231.102 318.898> 450 86<231.102 318.898> 604 86<183.605 366.395>
LayerCount: 2
Back
Fore
SplineSet
690 275 m 0
 690 195 658 119 602 63 c 0
 546 7 470 -25 390 -25 c 0
 310 -25 234 7 178 63 c 0
 122 119 90 195 90 275 c 0
 90 355 122 431 178 487 c 0
 234 543 310 575 390 575 c 0
 470 575 546 543 602 487 c 0
 658 431 690 355 690 275 c 0
390 61 m 0
 506 61 604 159 604 275 c 0
 604 391 506 489 390 489 c 0
 274 489 176 391 176 275 c 0
 176 159 274 61 390 61 c 0
390 421 m 0
 469 421 536 354 536 275 c 0
 536 196 469 129 390 129 c 0
 311 129 244 196 244 275 c 0
 244 354 311 421 390 421 c 0
390 215 m 0
 422 215 450 243 450 275 c 0
 450 307 422 335 390 335 c 0
 358 335 330 307 330 275 c 0
 330 243 358 215 390 215 c 0
EndSplineSet
EndChar

StartChar: uni229B
Encoding: 108 8859 108
Width: 780
Flags: W
VStem: 90 86<216.446 333.554> 604 86<216.446 333.554>
LayerCount: 2
Back
Fore
SplineSet
426 337 m 1
 544 423 l 1
 516 452 481 473 442 483 c 1
 426 337 l 1
354 337 m 1
 338 483 l 1
 299 473 264 452 236 423 c 1
 354 337 l 1
319 275 m 1
 184 334 l 1
 178 315 176 295 176 275 c 0
 176 255 178 235 184 216 c 1
 319 275 l 1
354 213 m 1
 236 127 l 1
 264 98 299 77 338 67 c 1
 354 213 l 1
426 213 m 1
 442 67 l 1
 481 77 516 98 544 127 c 1
 426 213 l 1
461 275 m 1
 596 216 l 1
 602 235 604 255 604 275 c 0
 604 295 602 315 596 334 c 1
 461 275 l 1
690 275 m 0
 690 195 658 119 602 63 c 0
 546 7 470 -25 390 -25 c 0
 310 -25 234 7 178 63 c 0
 122 119 90 195 90 275 c 0
 90 355 122 431 178 487 c 0
 234 543 310 575 390 575 c 0
 470 575 546 543 602 487 c 0
 658 431 690 355 690 275 c 0
EndSplineSet
EndChar

StartChar: uni229D
Encoding: 109 8861 109
Width: 780
Flags: W
HStem: -25 86<298.605 481.395> 232 86<219 561> 489 86<298.605 481.395>
VStem: 90 86<183.605 366.395> 604 86<183.605 366.395>
CounterMasks: 1 e0
LayerCount: 2
Back
Fore
SplineSet
690 275 m 0
 690 195 658 119 602 63 c 0
 546 7 470 -25 390 -25 c 0
 310 -25 234 7 178 63 c 0
 122 119 90 195 90 275 c 0
 90 355 122 431 178 487 c 0
 234 543 310 575 390 575 c 0
 470 575 546 543 602 487 c 0
 658 431 690 355 690 275 c 0
390 61 m 0
 506 61 604 159 604 275 c 0
 604 391 506 489 390 489 c 0
 274 489 176 391 176 275 c 0
 176 159 274 61 390 61 c 0
219 232 m 1
 219 318 l 1
 561 318 l 1
 561 232 l 1
 219 232 l 1
EndSplineSet
EndChar

StartChar: uni229C
Encoding: 110 8860 110
Width: 780
Flags: W
HStem: -25 86<298.605 481.395> 155 86<219 561> 309 86<219 561> 489 86<298.605 481.395>
VStem: 90 86<183.605 366.395> 604 86<183.605 366.395>
LayerCount: 2
Back
Fore
SplineSet
690 275 m 0
 690 195 658 119 602 63 c 0
 546 7 470 -25 390 -25 c 0
 310 -25 234 7 178 63 c 0
 122 119 90 195 90 275 c 0
 90 355 122 431 178 487 c 0
 234 543 310 575 390 575 c 0
 470 575 546 543 602 487 c 0
 658 431 690 355 690 275 c 0
390 61 m 0
 506 61 604 159 604 275 c 0
 604 391 506 489 390 489 c 0
 274 489 176 391 176 275 c 0
 176 159 274 61 390 61 c 0
219 309 m 1
 219 395 l 1
 561 395 l 1
 561 309 l 1
 219 309 l 1
219 155 m 1
 219 241 l 1
 561 241 l 1
 561 155 l 1
 219 155 l 1
EndSplineSet
EndChar

StartChar: emptyset
Encoding: 111 8709 111
Width: 780
Flags: W
HStem: -25 86<298.243 481.395> 489 86<298.605 481.757>
VStem: 90 86<183.243 366.395> 604 86<183.605 366.757>
LayerCount: 2
Back
Fore
SplineSet
390 489 m 0
 274 489 176 391 176 275 c 0
 176 233 189 193 212 158 c 1
 507 453 l 1
 472 476 432 489 390 489 c 0
390 61 m 0
 506 61 604 159 604 275 c 0
 604 317 591 357 568 392 c 1
 273 97 l 1
 308 74 348 61 390 61 c 0
632 578 m 1
 693 517 l 1
 630 454 l 1
 668 403 690 340 690 275 c 0
 690 195 658 119 602 63 c 0
 546 7 470 -25 390 -25 c 0
 325 -25 262 -3 211 35 c 1
 148 -28 l 1
 87 33 l 1
 150 96 l 1
 112 147 90 210 90 275 c 0
 90 355 122 431 178 487 c 0
 234 543 310 575 390 575 c 0
 455 575 518 553 569 515 c 1
 632 578 l 1
EndSplineSet
EndChar

StartChar: uni29B0
Encoding: 112 10672 112
Width: 780
Flags: W
HStem: -25 86<298.605 481.757> 489 86<298.243 481.395>
VStem: 90 86<183.605 366.757> 604 86<183.243 366.395>
LayerCount: 2
Back
Fore
SplineSet
176 275 m 0
 176 159 274 61 390 61 c 0
 432 61 472 74 507 97 c 1
 212 392 l 1
 189 357 176 317 176 275 c 0
604 275 m 0
 604 391 506 489 390 489 c 0
 348 489 308 476 273 453 c 1
 568 158 l 1
 591 193 604 233 604 275 c 0
693 33 m 1
 632 -28 l 1
 569 35 l 1
 518 -3 455 -25 390 -25 c 0
 310 -25 234 7 178 63 c 0
 122 119 90 195 90 275 c 0
 90 340 112 403 150 454 c 1
 87 517 l 1
 148 578 l 1
 211 515 l 1
 262 553 325 575 390 575 c 0
 470 575 546 543 602 487 c 0
 658 431 690 355 690 275 c 0
 690 210 668 147 630 96 c 1
 693 33 l 1
EndSplineSet
EndChar

StartChar: uni25EF
Encoding: 113 9711 113
Width: 1044
Flags: W
HStem: -157 86<401.265 642.735> 621 86<401.265 642.735>
VStem: 90 86<154.265 395.735> 868 86<154.265 395.735>
LayerCount: 2
Back
Fore
SplineSet
954 275 m 0
 954 160 908 51 827 -30 c 0
 746 -111 637 -157 522 -157 c 0
 407 -157 298 -111 217 -30 c 0
 136 51 90 160 90 275 c 0
 90 390 136 499 217 580 c 0
 298 661 407 707 522 707 c 0
 637 707 746 661 827 580 c 0
 908 499 954 390 954 275 c 0
868 275 m 0
 868 367 832 455 767 520 c 0
 702 585 614 621 522 621 c 0
 430 621 342 585 277 520 c 0
 212 455 176 367 176 275 c 0
 176 183 212 95 277 30 c 0
 342 -35 430 -71 522 -71 c 0
 614 -71 702 -35 767 30 c 0
 832 95 868 183 868 275 c 0
EndSplineSet
EndChar

StartChar: uni2B24
Encoding: 114 11044 114
Width: 1044
Flags: W
HStem: -157 864<391.292 652.708>
VStem: 90 864<144.292 405.708>
LayerCount: 2
Back
Fore
SplineSet
954 275 m 0
 954 160 908 51 827 -30 c 0
 746 -111 637 -157 522 -157 c 0
 407 -157 298 -111 217 -30 c 0
 136 51 90 160 90 275 c 0
 90 390 136 499 217 580 c 0
 298 661 407 707 522 707 c 0
 637 707 746 661 827 580 c 0
 908 499 954 390 954 275 c 0
EndSplineSet
EndChar

StartChar: uni25AB
Encoding: 115 9643 115
Width: 519
Flags: W
HStem: 105 86<176 343> 359 86<176 343>
VStem: 90 86<191 359> 343 86<191 359>
LayerCount: 2
Back
Fore
SplineSet
429 445 m 1
 429 105 l 1
 90 105 l 1
 90 445 l 1
 429 445 l 1
343 359 m 1
 176 359 l 1
 176 191 l 1
 343 191 l 1
 343 359 l 1
EndSplineSet
EndChar

StartChar: uni25AA
Encoding: 116 9642 116
Width: 519
Flags: W
HStem: 105 340<90 429>
VStem: 90 339<105 445>
LayerCount: 2
Back
Fore
SplineSet
429 445 m 1
 429 105 l 1
 90 105 l 1
 90 445 l 1
 429 445 l 1
EndSplineSet
EndChar

StartChar: uni25A1
Encoding: 117 9633 117
Width: 710
Flags: W
HStem: 10 86<176 534> 454 86<176 534>
VStem: 90 86<96 454> 534 86<96 454>
LayerCount: 2
Back
Fore
SplineSet
620 540 m 1
 620 10 l 1
 90 10 l 1
 90 540 l 1
 620 540 l 1
534 454 m 1
 176 454 l 1
 176 96 l 1
 534 96 l 1
 534 454 l 1
EndSplineSet
EndChar

StartChar: uni25A0
Encoding: 118 9632 118
Width: 710
Flags: W
HStem: 10 530<90 620>
VStem: 90 530<10 540>
LayerCount: 2
Back
Fore
SplineSet
620 540 m 1
 620 10 l 1
 90 10 l 1
 90 540 l 1
 620 540 l 1
EndSplineSet
EndChar

StartChar: uni229F
Encoding: 119 8863 119
Width: 710
Flags: W
HStem: 10 86<176 534> 232 86<176 534> 454 86<176 534>
VStem: 90 86<96 232 318 454> 534 86<96 232 318 454>
CounterMasks: 1 e0
LayerCount: 2
Back
Fore
SplineSet
534 232 m 1
 176 232 l 1
 176 96 l 1
 534 96 l 1
 534 232 l 1
620 540 m 1
 620 10 l 1
 90 10 l 1
 90 540 l 1
 620 540 l 1
534 454 m 1
 176 454 l 1
 176 318 l 1
 534 318 l 1
 534 454 l 1
EndSplineSet
EndChar

StartChar: uni25EB
Encoding: 120 9707 120
Width: 710
Flags: W
HStem: 10 86<176 312 398 534> 454 86<176 312 398 534>
VStem: 90 86<96 454> 312 86<96 454> 534 86<96 454>
CounterMasks: 1 38
LayerCount: 2
Back
Fore
SplineSet
312 96 m 1
 312 454 l 1
 176 454 l 1
 176 96 l 1
 312 96 l 1
398 96 m 1
 534 96 l 1
 534 454 l 1
 398 454 l 1
 398 96 l 1
620 540 m 1
 620 10 l 1
 90 10 l 1
 90 540 l 1
 620 540 l 1
EndSplineSet
EndChar

StartChar: uni29C4
Encoding: 121 10692 121
Width: 710
Flags: W
HStem: 10 86<237 534> 454 86<176 473>
VStem: 90 86<156 454> 534 86<96 393>
LayerCount: 2
Back
Fore
SplineSet
176 156 m 1
 473 454 l 1
 176 454 l 1
 176 156 l 1
534 393 m 1
 237 96 l 1
 534 96 l 1
 534 393 l 1
620 540 m 1
 620 10 l 1
 90 10 l 1
 90 540 l 1
 620 540 l 1
EndSplineSet
EndChar

StartChar: uni29C5
Encoding: 122 10693 122
Width: 710
Flags: W
HStem: 10 86<176 473> 454 86<237 534>
VStem: 90 86<96 394> 534 86<157 454>
LayerCount: 2
Back
Fore
SplineSet
473 96 m 1
 176 394 l 1
 176 96 l 1
 473 96 l 1
534 157 m 1
 534 454 l 1
 237 454 l 1
 534 157 l 1
620 540 m 1
 620 10 l 1
 90 10 l 1
 90 540 l 1
 620 540 l 1
EndSplineSet
EndChar

StartChar: uni229E
Encoding: 123 8862 123
Width: 710
Flags: W
HStem: 10 86<176 312 398 534> 232 86<176 312 398 534> 454 86<176 312 398 534>
VStem: 90 86<96 232 318 454> 312 86<96 232 318 454> 534 86<96 232 318 454>
CounterMasks: 1 fc
LayerCount: 2
Back
Fore
SplineSet
312 232 m 1
 176 232 l 1
 176 96 l 1
 312 96 l 1
 312 232 l 1
398 232 m 1
 398 96 l 1
 534 96 l 1
 534 232 l 1
 398 232 l 1
312 318 m 1
 312 454 l 1
 176 454 l 1
 176 318 l 1
 312 318 l 1
398 318 m 1
 534 318 l 1
 534 454 l 1
 398 454 l 1
 398 318 l 1
620 540 m 1
 620 10 l 1
 90 10 l 1
 90 540 l 1
 620 540 l 1
EndSplineSet
EndChar

StartChar: uni22A0
Encoding: 124 8864 124
Width: 710
Flags: W
HStem: 10 86<237 473> 454 86<237 473>
VStem: 90 86<156 394> 534 86<157 393>
LayerCount: 2
Back
Fore
SplineSet
355 214 m 1
 237 96 l 1
 473 96 l 1
 355 214 l 1
416 275 m 1
 534 157 l 1
 534 393 l 1
 416 275 l 1
295 275 m 1
 176 394 l 1
 176 156 l 1
 295 275 l 1
355 336 m 1
 473 454 l 1
 237 454 l 1
 355 336 l 1
620 540 m 1
 620 10 l 1
 90 10 l 1
 90 540 l 1
 620 540 l 1
EndSplineSet
EndChar

StartChar: uni22A1
Encoding: 125 8865 125
Width: 710
Flags: W
HStem: 10 86<176 534> 181 188<315.694 395.074> 454 86<176 534>
VStem: 90 86<96 454> 261 188<235.251 314.749> 534 86<96 454>
CounterMasks: 1 fc
LayerCount: 2
Back
Fore
SplineSet
620 540 m 1
 620 10 l 1
 90 10 l 1
 90 540 l 1
 620 540 l 1
534 454 m 1
 176 454 l 1
 176 96 l 1
 534 96 l 1
 534 454 l 1
449 275 m 0
 449 256 428 235 412 219 c 0
 395 202 374 181 355 181 c 0
 336 181 316 202 299 219 c 0
 282 235 261 256 261 275 c 0
 261 294 282 315 299 331 c 0
 316 348 336 369 355 369 c 0
 374 369 395 348 412 331 c 0
 428 315 449 294 449 275 c 0
EndSplineSet
EndChar

StartChar: uni29C8
Encoding: 126 10696 126
Width: 710
Flags: W
HStem: 10 86<176 534> 152 69<301 410> 329 69<301 410> 454 86<176 534>
VStem: 90 86<96 454> 232 69<221 329> 410 68<221 329> 534 86<96 454>
LayerCount: 2
Back
Fore
SplineSet
620 540 m 1
 620 10 l 1
 90 10 l 1
 90 540 l 1
 620 540 l 1
534 454 m 1
 176 454 l 1
 176 96 l 1
 534 96 l 1
 534 454 l 1
478 398 m 1
 478 152 l 1
 232 152 l 1
 232 398 l 1
 478 398 l 1
410 329 m 1
 301 329 l 1
 301 221 l 1
 410 221 l 1
 410 329 l 1
EndSplineSet
EndChar

StartChar: uni2B1C
Encoding: 127 11036 127
Width: 944
Flags: W
HStem: -107 86<176 768> 571 86<176 768>
VStem: 90 86<-21 571> 768 86<-21 571>
LayerCount: 2
Back
Fore
SplineSet
854 657 m 1
 854 -107 l 1
 90 -107 l 1
 90 657 l 1
 854 657 l 1
768 571 m 1
 176 571 l 1
 176 -21 l 1
 768 -21 l 1
 768 571 l 1
EndSplineSet
EndChar

StartChar: uni2B1B
Encoding: 128 11035 128
Width: 944
Flags: W
HStem: -107 764<90 854>
VStem: 90 764<-107 657>
LayerCount: 2
Back
Fore
SplineSet
854 657 m 1
 854 -107 l 1
 90 -107 l 1
 90 657 l 1
 854 657 l 1
EndSplineSet
EndChar

StartChar: uni22C4
Encoding: 129 8900 129
Width: 660
Flags: W
LayerCount: 2
Back
Fore
SplineSet
330 533 m 1
 588 275 l 1
 330 17 l 1
 72 275 l 1
 330 533 l 1
330 411 m 1
 194 275 l 1
 330 139 l 1
 466 275 l 1
 330 411 l 1
EndSplineSet
EndChar

StartChar: uni2B29
Encoding: 130 11049 130
Width: 660
Flags: W
LayerCount: 2
Back
Fore
SplineSet
330 533 m 1
 588 275 l 1
 330 17 l 1
 72 275 l 1
 330 533 l 1
EndSplineSet
EndChar

StartChar: uni25C7
Encoding: 131 9671 131
Width: 930
Flags: W
LayerCount: 2
Back
Fore
SplineSet
465 668 m 1
 858 275 l 1
 465 -118 l 1
 72 275 l 1
 465 668 l 1
465 546 m 1
 194 275 l 1
 465 4 l 1
 736 275 l 1
 465 546 l 1
EndSplineSet
EndChar

StartChar: uni25C6
Encoding: 132 9670 132
Width: 930
Flags: W
LayerCount: 2
Back
Fore
SplineSet
465 668 m 1
 858 275 l 1
 465 -118 l 1
 72 275 l 1
 465 668 l 1
EndSplineSet
EndChar

StartChar: sym011
Encoding: 133 -1 133
Width: 930
Flags: W
HStem: 232 86<237 693>
LayerCount: 2
Back
Fore
SplineSet
693 232 m 1
 237 232 l 1
 465 4 l 1
 693 232 l 1
693 318 m 1
 465 546 l 1
 237 318 l 1
 693 318 l 1
465 668 m 1
 858 275 l 1
 465 -118 l 1
 72 275 l 1
 465 668 l 1
EndSplineSet
EndChar

StartChar: sym012
Encoding: 134 -1 134
Width: 930
Flags: W
VStem: 422 86<47 503>
LayerCount: 2
Back
Fore
SplineSet
422 47 m 1
 422 503 l 1
 194 275 l 1
 422 47 l 1
508 503 m 1
 508 47 l 1
 736 275 l 1
 508 503 l 1
465 668 m 1
 858 275 l 1
 465 -118 l 1
 72 275 l 1
 465 668 l 1
EndSplineSet
EndChar

StartChar: sym013
Encoding: 135 -1 135
Width: 930
Flags: W
LayerCount: 2
Back
Fore
SplineSet
630 380 m 1
 360 109 l 1
 465 4 l 1
 736 275 l 1
 630 380 l 1
465 668 m 1
 858 275 l 1
 465 -118 l 1
 72 275 l 1
 465 668 l 1
465 546 m 1
 194 275 l 1
 300 170 l 1
 570 440 l 1
 465 546 l 1
EndSplineSet
EndChar

StartChar: sym014
Encoding: 136 -1 136
Width: 930
Flags: W
LayerCount: 2
Back
Fore
SplineSet
570 110 m 1
 300 380 l 1
 194 275 l 1
 465 4 l 1
 570 110 l 1
630 170 m 1
 736 275 l 1
 465 546 l 1
 360 440 l 1
 630 170 l 1
465 668 m 1
 858 275 l 1
 465 -118 l 1
 72 275 l 1
 465 668 l 1
EndSplineSet
EndChar

StartChar: sym015
Encoding: 137 -1 137
Width: 930
Flags: W
HStem: 232 86<237 422 508 693>
VStem: 422 86<47 232 318 503>
LayerCount: 2
Back
Fore
SplineSet
422 232 m 1
 237 232 l 1
 422 47 l 1
 422 232 l 1
508 232 m 1
 508 47 l 1
 693 232 l 1
 508 232 l 1
422 318 m 1
 422 503 l 1
 237 318 l 1
 422 318 l 1
508 318 m 1
 693 318 l 1
 508 503 l 1
 508 318 l 1
465 668 m 1
 858 275 l 1
 465 -118 l 1
 72 275 l 1
 465 668 l 1
EndSplineSet
EndChar

StartChar: sym016
Encoding: 138 -1 138
Width: 930
Flags: W
LayerCount: 2
Back
Fore
SplineSet
465 215 m 1
 360 109 l 1
 465 4 l 1
 570 110 l 1
 465 215 l 1
525 275 m 1
 630 170 l 1
 736 275 l 1
 630 380 l 1
 525 275 l 1
405 275 m 1
 300 380 l 1
 194 275 l 1
 300 170 l 1
 405 275 l 1
465 335 m 1
 570 440 l 1
 465 546 l 1
 360 440 l 1
 465 335 l 1
465 668 m 1
 858 275 l 1
 465 -118 l 1
 72 275 l 1
 465 668 l 1
EndSplineSet
EndChar

StartChar: uni27D0
Encoding: 139 10192 139
Width: 930
Flags: W
HStem: 181 188<425.251 504.749>
VStem: 371 188<235.251 314.749>
LayerCount: 2
Back
Fore
SplineSet
465 668 m 1
 858 275 l 1
 465 -118 l 1
 72 275 l 1
 465 668 l 1
465 546 m 1
 194 275 l 1
 465 4 l 1
 736 275 l 1
 465 546 l 1
559 275 m 0
 559 256 538 235 521 219 c 0
 505 202 484 181 465 181 c 0
 446 181 425 202 409 219 c 0
 392 235 371 256 371 275 c 0
 371 294 392 315 409 331 c 0
 425 348 446 369 465 369 c 0
 484 369 505 348 521 331 c 0
 538 315 559 294 559 275 c 0
EndSplineSet
EndChar

StartChar: sym017
Encoding: 140 -1 140
Width: 930
Flags: W
LayerCount: 2
Back
Fore
SplineSet
465 668 m 1
 858 275 l 1
 465 -118 l 1
 72 275 l 1
 465 668 l 1
465 546 m 1
 194 275 l 1
 465 4 l 1
 736 275 l 1
 465 546 l 1
465 456 m 1
 646 275 l 1
 465 94 l 1
 284 275 l 1
 465 456 l 1
465 359 m 1
 381 275 l 1
 465 191 l 1
 549 275 l 1
 465 359 l 1
EndSplineSet
EndChar

StartChar: uni2B2B
Encoding: 141 11051 141
Width: 580
Flags: W
LayerCount: 2
Back
Fore
SplineSet
90 275 m 1
 290 595 l 1
 490 275 l 1
 290 -45 l 1
 90 275 l 1
191 275 m 1
 290 117 l 1
 389 275 l 1
 290 433 l 1
 191 275 l 1
EndSplineSet
EndChar

StartChar: uni2B2A
Encoding: 142 11050 142
Width: 580
Flags: W
LayerCount: 2
Back
Fore
SplineSet
90 275 m 1
 290 595 l 1
 490 275 l 1
 290 -45 l 1
 90 275 l 1
EndSplineSet
EndChar

StartChar: lozenge
Encoding: 143 9674 143
Width: 710
Flags: W
LayerCount: 2
Back
Fore
SplineSet
90 275 m 1
 355 699 l 1
 620 275 l 1
 355 -149 l 1
 90 275 l 1
191 275 m 1
 355 13 l 1
 519 275 l 1
 355 537 l 1
 191 275 l 1
EndSplineSet
EndChar

StartChar: uni29EB
Encoding: 144 10731 144
Width: 710
Flags: W
LayerCount: 2
Back
Fore
SplineSet
90 275 m 1
 355 699 l 1
 620 275 l 1
 355 -149 l 1
 90 275 l 1
EndSplineSet
EndChar

StartChar: uni27E0
Encoding: 145 10208 145
Width: 710
Flags: W
HStem: 232 86<218 492>
LayerCount: 2
Back
Fore
SplineSet
492 232 m 1
 218 232 l 1
 355 13 l 1
 492 232 l 1
218 318 m 1
 492 318 l 1
 355 537 l 1
 218 318 l 1
90 275 m 1
 355 699 l 1
 620 275 l 1
 355 -149 l 1
 90 275 l 1
EndSplineSet
EndChar

StartChar: uni2B52
Encoding: 146 11090 146
Width: 780
Flags: W
HStem: 285 70<263 309 471 517>
LayerCount: 2
Back
Fore
SplineSet
390 587 m 1
 471 355 l 1
 716 350 l 1
 520 201 l 1
 592 -34 l 1
 390 107 l 1
 188 -34 l 1
 260 201 l 1
 64 350 l 1
 309 355 l 1
 390 587 l 1
390 377 m 1
 359 287 l 1
 263 285 l 1
 339 227 l 1
 312 136 l 1
 390 190 l 1
 468 136 l 1
 441 227 l 1
 517 285 l 1
 421 287 l 1
 390 377 l 1
EndSplineSet
EndChar

StartChar: uni22C6
Encoding: 147 8902 147
Width: 660
Flags: W
LayerCount: 2
Back
Fore
SplineSet
330 532 m 1
 397 341 l 1
 599 337 l 1
 438 214 l 1
 496 20 l 1
 330 136 l 1
 164 20 l 1
 222 214 l 1
 61 337 l 1
 263 341 l 1
 330 532 l 1
EndSplineSet
EndChar

StartChar: uni2B50
Encoding: 148 11088 148
Width: 930
Flags: W
HStem: 285 87<317 367 563 613>
LayerCount: 2
Back
Fore
SplineSet
465 655 m 1
 563 372 l 1
 863 366 l 1
 624 185 l 1
 711 -101 l 1
 465 70 l 1
 219 -101 l 1
 306 185 l 1
 67 366 l 1
 367 372 l 1
 465 655 l 1
465 393 m 1
 428 288 l 1
 317 285 l 1
 406 218 l 1
 373 111 l 1
 465 175 l 1
 557 111 l 1
 524 218 l 1
 613 285 l 1
 502 288 l 1
 465 393 l 1
EndSplineSet
EndChar

StartChar: uni2B51
Encoding: 149 11089 149
Width: 930
Flags: W
LayerCount: 2
Back
Fore
SplineSet
465 655 m 1
 563 372 l 1
 863 366 l 1
 624 185 l 1
 711 -101 l 1
 465 70 l 1
 219 -101 l 1
 306 185 l 1
 67 366 l 1
 367 372 l 1
 465 655 l 1
EndSplineSet
EndChar

StartChar: uni2606
Encoding: 150 9734 150
Width: 1260
Flags: W
HStem: 321 90<325 493 767 935>
LayerCount: 2
Back
Fore
SplineSet
630 805 m 1
 767 411 l 1
 1184 402 l 1
 852 150 l 1
 973 -250 l 1
 630 -11 l 1
 287 -250 l 1
 408 150 l 1
 76 402 l 1
 493 411 l 1
 630 805 l 1
630 543 m 1
 555 326 l 1
 325 321 l 1
 508 182 l 1
 441 -38 l 1
 630 94 l 1
 819 -38 l 1
 752 182 l 1
 935 321 l 1
 705 326 l 1
 630 543 l 1
EndSplineSet
EndChar

StartChar: uni2605
Encoding: 151 9733 151
Width: 1260
Flags: W
LayerCount: 2
Back
Fore
SplineSet
630 805 m 1
 767 411 l 1
 1184 402 l 1
 852 150 l 1
 973 -250 l 1
 630 -11 l 1
 287 -250 l 1
 408 150 l 1
 76 402 l 1
 493 411 l 1
 630 805 l 1
EndSplineSet
EndChar

StartChar: asteriskmath
Encoding: 152 8727 152
Width: 660
Flags: W
LayerCount: 2
Back
Fore
SplineSet
403 275 m 1
 567 205 l 1
 509 105 l 1
 366 212 l 1
 387 35 l 1
 273 35 l 1
 294 212 l 1
 151 105 l 1
 93 205 l 1
 257 275 l 1
 93 345 l 1
 151 445 l 1
 294 338 l 1
 273 515 l 1
 387 515 l 1
 366 338 l 1
 509 445 l 1
 567 345 l 1
 403 275 l 1
EndSplineSet
EndChar

StartChar: infinity
Encoding: 153 8734 153
Width: 1044
Flags: W
HStem: 40 86<230.696 355.756 688.244 813.304> 424 86<230.696 355.756 688.244 813.304>
VStem: 90 86<185.608 364.392> 868 86<185.608 364.392>
LayerCount: 2
Back
Fore
SplineSet
579 275 m 1
 632 209 671 126 755 126 c 0
 825 126 868 198 868 275 c 0
 868 352 825 424 755 424 c 0
 671 424 632 341 579 275 c 1
522 338 m 1
 591 417 652 510 755 510 c 0
 872 510 954 399 954 275 c 0
 954 151 872 40 755 40 c 0
 652 40 591 133 522 212 c 1
 453 133 392 40 289 40 c 0
 172 40 90 151 90 275 c 0
 90 399 172 510 289 510 c 0
 392 510 453 417 522 338 c 1
465 275 m 1
 412 341 373 424 289 424 c 0
 219 424 176 352 176 275 c 0
 176 198 219 126 289 126 c 0
 373 126 412 209 465 275 c 1
EndSplineSet
EndChar

StartChar: proportional
Encoding: 154 8733 154
Width: 948
Flags: W
HStem: 40 86<232.624 357.935 698.329 858> 424 86<232.624 357.935 698.329 858>
VStem: 90 86<189.67 360.33>
LayerCount: 2
Back
Fore
SplineSet
465 275 m 1
 413 340 375 424 292 424 c 0
 221 424 176 352 176 275 c 0
 176 198 221 126 292 126 c 0
 375 126 413 210 465 275 c 1
858 510 m 1
 858 424 l 1
 767 424 l 2
 681 424 635 342 579 275 c 1
 635 208 681 126 767 126 c 2
 858 126 l 1
 858 40 l 1
 767 40 l 2
 661 40 594 132 522 213 c 1
 454 134 394 40 292 40 c 0
 173 40 90 151 90 275 c 0
 90 399 173 510 292 510 c 0
 394 510 454 416 522 337 c 1
 594 418 661 510 767 510 c 2
 858 510 l 1
EndSplineSet
EndChar

StartChar: sym018
Encoding: 155 -1 155
Width: 948
Flags: W
HStem: 40 86<90 249.671 590.452 715.811> 424 86<90 249.671 590.452 715.811>
VStem: 772 86<189.67 360.33>
LayerCount: 2
Back
Fore
SplineSet
483 275 m 1
 535 210 573 126 657 126 c 0
 727 126 772 198 772 275 c 0
 772 352 727 424 657 424 c 0
 573 424 535 340 483 275 c 1
90 40 m 1
 90 126 l 1
 181 126 l 2
 267 126 313 208 369 275 c 1
 313 342 267 424 181 424 c 2
 90 424 l 1
 90 510 l 1
 181 510 l 2
 287 510 354 418 426 337 c 1
 494 416 554 510 657 510 c 0
 775 510 858 399 858 275 c 0
 858 151 775 40 657 40 c 0
 554 40 494 134 426 213 c 1
 354 132 287 40 181 40 c 2
 90 40 l 1
EndSplineSet
EndChar

StartChar: sym019
Encoding: 156 -1 156
Width: 852
Flags: W
HStem: 40 86<90 249.671 602.329 762> 424 86<90 249.671 602.329 762>
LayerCount: 2
Back
Fore
SplineSet
90 510 m 1
 181 510 l 2
 287 510 354 418 426 337 c 1
 498 418 565 510 671 510 c 2
 762 510 l 1
 762 424 l 1
 671 424 l 2
 585 424 539 342 483 275 c 1
 539 208 585 126 671 126 c 2
 762 126 l 1
 762 40 l 1
 671 40 l 2
 565 40 498 132 426 213 c 1
 354 132 287 40 181 40 c 2
 90 40 l 1
 90 126 l 1
 181 126 l 2
 267 126 313 208 369 275 c 1
 313 342 267 424 181 424 c 2
 90 424 l 1
 90 510 l 1
EndSplineSet
EndChar

StartChar: uni226C
Encoding: 157 8812 157
Width: 459
Flags: W
VStem: 90 86<163.399 386.601> 282 86<163.399 386.601>
LayerCount: 2
Back
Fore
SplineSet
229 450 m 1
 196 397 176 338 176 275 c 0
 176 212 196 153 229 100 c 1
 262 153 282 212 282 275 c 0
 282 338 262 397 229 450 c 1
352 -32 m 1
 299 -100 l 1
 274 -81 251 -59 229 -37 c 1
 207 -59 184 -81 159 -100 c 1
 107 -32 l 1
 131 -13 153 7 174 29 c 1
 122 101 90 185 90 275 c 0
 90 365 122 449 174 521 c 1
 153 543 131 563 107 582 c 1
 159 650 l 1
 184 631 207 609 229 587 c 1
 251 609 274 631 299 650 c 1
 352 582 l 1
 328 563 306 543 285 521 c 1
 336 449 368 365 368 275 c 0
 368 185 336 101 285 29 c 1
 306 7 328 -13 352 -32 c 1
EndSplineSet
EndChar

StartChar: uni22BA
Encoding: 158 8890 158
Width: 565
Flags: W
HStem: -220 21G<239 325> 460 86<90 239 325 475>
VStem: 239 86<-220 460>
LayerCount: 2
Back
Fore
SplineSet
325 -220 m 1
 239 -220 l 1
 239 460 l 1
 90 460 l 1
 90 546 l 1
 475 546 l 1
 475 460 l 1
 325 460 l 1
 325 -220 l 1
EndSplineSet
EndChar

StartChar: uni2240
Encoding: 159 8768 159
Width: 394
Flags: W
HStem: 525 20G<180.273 222>
VStem: 90 86<101.89 209.808> 218 86<339.509 448.11>
LayerCount: 2
Back
Fore
SplineSet
151 490 m 1
 197 545 l 1
 247 503 304 460 304 396 c 0
 304 337 269 286 228 245 c 0
 202 219 176 190 176 154 c 0
 176 114 212 86 243 60 c 1
 197 5 l 1
 147 47 90 90 90 154 c 0
 90 213 125 264 167 305 c 0
 192 331 218 360 218 396 c 0
 218 436 182 464 151 490 c 1
EndSplineSet
EndChar

StartChar: angle
Encoding: 160 8736 160
Width: 720
Flags: W
HStem: 5 86<188 630> 527 20G<471.623 511.695>
LayerCount: 2
Back
Fore
SplineSet
630 91 m 1
 630 5 l 1
 97 5 l 1
 71 91 l 1
 490 547 l 1
 554 488 l 1
 188 91 l 1
 630 91 l 1
EndSplineSet
EndChar

StartChar: uni29A3
Encoding: 161 10659 161
Width: 720
Flags: W
HStem: 5 86<90 532> 527 20G<208.305 248.377>
LayerCount: 2
Back
Fore
SplineSet
90 91 m 1
 532 91 l 1
 166 488 l 1
 230 547 l 1
 649 91 l 1
 623 5 l 1
 90 5 l 1
 90 91 l 1
EndSplineSet
EndChar

StartChar: uni2221
Encoding: 162 8737 162
Width: 720
Flags: W
HStem: 5 86<188 404 488.435 630> 527 20G<471.623 511.695>
VStem: 404 87<91 170.483>
LayerCount: 2
Back
Fore
SplineSet
404 91 m 1
 396 150 372 205 334 250 c 1
 188 91 l 1
 404 91 l 1
630 91 m 1
 630 5 l 1
 97 5 l 1
 71 91 l 1
 490 547 l 1
 554 488 l 1
 393 314 l 1
 448 251 482 174 491 91 c 1
 630 91 l 1
EndSplineSet
EndChar

StartChar: uni299B
Encoding: 163 10651 163
Width: 720
Flags: W
HStem: 5 86<90 231.565 316 532> 527 20G<208.305 248.377>
VStem: 229 87<91 170.483>
LayerCount: 2
Back
Fore
SplineSet
386 250 m 1
 348 205 324 150 316 91 c 1
 532 91 l 1
 386 250 l 1
327 314 m 1
 166 488 l 1
 230 547 l 1
 649 91 l 1
 623 5 l 1
 90 5 l 1
 90 91 l 1
 229 91 l 1
 238 174 272 251 327 314 c 1
EndSplineSet
EndChar

StartChar: uni2222
Encoding: 164 8738 164
Width: 720
Flags: W
VStem: 455 86<184.956 365.044>
LayerCount: 2
Back
Fore
SplineSet
435 184 m 1
 449 213 455 244 455 275 c 0
 455 306 449 337 435 366 c 1
 237 275 l 1
 435 184 l 1
594 533 m 1
 630 455 l 1
 513 402 l 1
 532 362 541 318 541 275 c 0
 541 232 532 188 513 148 c 1
 630 95 l 1
 594 17 l 1
 90 247 l 1
 90 303 l 1
 594 533 l 1
EndSplineSet
EndChar

StartChar: uni29A1
Encoding: 165 10657 165
Width: 720
Flags: W
HStem: 370 86<269.956 450.044> 525 20G<136.667 189.06 530.94 583.333>
LayerCount: 2
Back
Fore
SplineSet
451 350 m 1
 422 364 391 370 360 370 c 0
 329 370 298 364 269 350 c 1
 360 152 l 1
 451 350 l 1
102 509 m 1
 180 545 l 1
 233 428 l 1
 273 447 317 456 360 456 c 0
 403 456 447 447 487 428 c 1
 540 545 l 1
 618 509 l 1
 388 5 l 1
 332 5 l 1
 102 509 l 1
EndSplineSet
EndChar

StartChar: uni29A0
Encoding: 166 10656 166
Width: 720
Flags: W
VStem: 179 86<184.956 365.044>
LayerCount: 2
Back
Fore
SplineSet
285 366 m 1
 271 337 265 306 265 275 c 0
 265 244 271 213 285 184 c 1
 484 275 l 1
 285 366 l 1
126 17 m 1
 90 95 l 1
 207 148 l 1
 188 188 179 232 179 275 c 0
 179 318 188 362 207 402 c 1
 90 455 l 1
 126 533 l 1
 630 303 l 1
 630 247 l 1
 126 17 l 1
EndSplineSet
EndChar

StartChar: sym01A
Encoding: 167 -1 167
Width: 720
Flags: W
HStem: 94 86<269.956 450.044> 525 20G<322.873 397.127>
LayerCount: 2
Back
Fore
SplineSet
269 200 m 1
 298 186 329 180 360 180 c 0
 391 180 422 186 451 200 c 1
 360 398 l 1
 269 200 l 1
618 41 m 1
 540 5 l 1
 487 122 l 1
 447 103 403 94 360 94 c 0
 317 94 273 103 233 122 c 1
 180 5 l 1
 102 41 l 1
 332 545 l 1
 388 545 l 1
 618 41 l 1
EndSplineSet
EndChar

StartChar: uni221F
Encoding: 168 8735 168
Width: 720
Flags: W
HStem: 5 86<176 630> 525 20G<90 176>
VStem: 90 86<91 545>
LayerCount: 2
Back
Fore
SplineSet
90 545 m 1
 176 545 l 1
 176 91 l 1
 630 91 l 1
 630 5 l 1
 450 5 270 5 90 5 c 1
 90 185 90 365 90 545 c 1
EndSplineSet
EndChar

StartChar: uni22BE
Encoding: 169 8894 169
Width: 720
Flags: W
HStem: 5 86<176 362 448 630> 277 86<176 260.798> 525 20G<90 176>
VStem: 90 86<91 277 363 545> 362 86<91 175.798>
LayerCount: 2
Back
Fore
SplineSet
362 91 m 1
 362 194 279 277 176 277 c 1
 176 91 l 1
 362 91 l 1
90 545 m 1
 176 545 l 1
 176 363 l 1
 326 363 448 241 448 91 c 1
 630 91 l 1
 630 5 l 1
 450 5 270 5 90 5 c 1
 90 185 90 365 90 545 c 1
EndSplineSet
EndChar

StartChar: uni299C
Encoding: 170 10652 170
Width: 720
Flags: W
HStem: 5 86<176 317 403 630> 232 86<176 317> 525 20G<90 176>
VStem: 90 86<91 232 318 545> 317 86<91 232>
LayerCount: 2
Back
Fore
SplineSet
317 232 m 1
 176 232 l 1
 176 91 l 1
 317 91 l 1
 317 232 l 1
90 545 m 1
 176 545 l 1
 176 318 l 1
 252 318 327 318 403 318 c 1
 403 242 403 167 403 91 c 1
 630 91 l 1
 630 5 l 1
 450 5 270 5 90 5 c 1
 90 185 90 365 90 545 c 1
EndSplineSet
EndChar

StartChar: uni299D
Encoding: 171 10653 171
Width: 720
Flags: W
HStem: 5 86<176 362 448 630> 114 94<215.319 277.714> 277 86<176 260.798> 525 20G<90 176>
VStem: 90 86<91 277 363 545> 200 94<130.286 192.681> 362 86<91 175.798>
LayerCount: 2
Back
Fore
SplineSet
362 91 m 1
 362 194 279 277 176 277 c 1
 176 91 l 1
 362 91 l 1
90 545 m 1
 176 545 l 1
 176 363 l 1
 326 363 448 241 448 91 c 1
 630 91 l 1
 630 5 l 1
 450 5 270 5 90 5 c 1
 90 185 90 365 90 545 c 1
294 161 m 0
 294 152 283 142 275 133 c 0
 266 125 256 114 247 114 c 0
 237 114 227 125 218 133 c 0
 210 142 200 152 200 161 c 0
 200 171 210 181 218 190 c 0
 227 198 237 208 247 208 c 0
 256 208 266 198 275 190 c 0
 283 181 294 171 294 161 c 0
EndSplineSet
EndChar

StartChar: minute
Encoding: 172 8242 172
Width: 266
Flags: W
VStem: 60 206
LayerCount: 2
Back
Fore
SplineSet
266 603 m 1
 175 67 l 1
 60 67 l 1
 120 603 l 1
 266 603 l 1
EndSplineSet
EndChar

StartChar: uni2035
Encoding: 173 8245 173
Width: 266
Flags: W
VStem: 0 206
LayerCount: 2
Back
Fore
SplineSet
0 603 m 1
 146 603 l 1
 206 67 l 1
 91 67 l 1
 0 603 l 1
EndSplineSet
EndChar

StartChar: product.small
Encoding: 174 -1 174
Width: 720
Flags: W
HStem: 5 53<99 142.269 263.677 306 414 456.323 577.731 621> 459 86<262 458> 491 54<93 142.38 577.62 627>
VStem: 144 118<67.6673 459> 458 118<67.6673 459>
LayerCount: 2
Back
Fore
SplineSet
99 5 m 1xd8
 90 58 l 1
 113 64 144 72 144 85 c 2
 144 464 l 2
 144 478 115 485 93 491 c 1
 90 545 l 1
 630 545 l 1
 627 491 l 1xb8
 605 485 576 478 576 464 c 2
 576 85 l 2
 576 72 607 64 630 58 c 1
 621 5 l 1
 414 5 l 1
 405 58 l 1
 428 64 458 72 458 85 c 2
 458 459 l 1
 262 459 l 1
 262 85 l 2
 262 72 292 64 315 58 c 1
 306 5 l 1
 99 5 l 1xd8
EndSplineSet
EndChar

StartChar: product.sf.small
Encoding: 175 -1 175
Width: 720
Flags: W
HStem: 430 115<90 148 263 457 572 630>
VStem: 148 115<5 430> 457 115<5 430>
LayerCount: 2
Back
Fore
SplineSet
148 5 m 1
 148 430 l 1
 90 430 l 1
 90 545 l 1
 630 545 l 1
 630 430 l 1
 572 430 l 1
 572 5 l 1
 457 5 l 1
 457 430 l 1
 263 430 l 1
 263 5 l 1
 148 5 l 1
EndSplineSet
EndChar

StartChar: uni2A3F
Encoding: 176 10815 176
Width: 720
Flags: W
HStem: 5 86<262 458> 5 54<93 142.38 577.62 627> 492 53<99 142.269 263.677 306 414 456.323 577.731 621>
VStem: 144 118<91 482.333> 458 118<91 482.333>
LayerCount: 2
Back
Fore
SplineSet
99 545 m 1x78
 306 545 l 1
 315 492 l 1
 292 486 262 478 262 465 c 2
 262 91 l 1
 458 91 l 1xb8
 458 465 l 2
 458 478 428 486 405 492 c 1
 414 545 l 1
 621 545 l 1
 630 492 l 1
 607 486 576 478 576 465 c 2
 576 86 l 2
 576 72 605 65 627 59 c 1
 630 5 l 1
 90 5 l 1
 93 59 l 1
 115 65 144 72 144 86 c 2
 144 465 l 2
 144 478 113 486 90 492 c 1
 99 545 l 1x78
EndSplineSet
EndChar

StartChar: uni2A3F.sf
Encoding: 177 -1 177
Width: 720
Flags: W
HStem: 5 115<90 148 263 457 572 630> 525 20G<148 263 457 572>
VStem: 148 115<120 545> 457 115<120 545>
LayerCount: 2
Back
Fore
SplineSet
148 545 m 1
 263 545 l 1
 263 120 l 1
 457 120 l 1
 457 545 l 1
 572 545 l 1
 572 120 l 1
 630 120 l 1
 630 5 l 1
 90 5 l 1
 90 120 l 1
 148 120 l 1
 148 545 l 1
EndSplineSet
EndChar

StartChar: integral.small
Encoding: 178 -1 178
Width: 482
Flags: W
HStem: 0 96<129 176.329> 661 94<304.944 368.567>
VStem: 183 115<98.7188 655.688>
LayerCount: 2
Back
Fore
SplineSet
390 747 m 1
 365 653 l 1
 354 658 342 661 330 661 c 0
 305 661 298 628 298 598 c 2
 298 162 l 2
 298 72 225 0 136 -0 c 0
 134 0 131 0 129 0 c 1
 116 96 l 1
 151 96 l 2
 178 96 183 130 183 162 c 2
 183 598 l 2
 183 685 255 755 341 755 c 0
 359 755 375 752 390 747 c 1
EndSplineSet
EndChar

StartChar: uni2713
Encoding: 179 10003 179
Width: 926
Flags: W
HStem: 0 21G<215.862 377> 734 20G<811 834.571>
LayerCount: 2
Back
Fore
SplineSet
90 246 m 1
 189 304 l 1
 285 132 l 1
 399 359 521 586 716 749 c 0
 721 754 791 754 831 754 c 1
 836 726 l 1
 813 714 791 700 771 684 c 0
 558 505 441 246 313 0 c 1
 227 0 l 1
 90 246 l 1
EndSplineSet
EndChar

StartChar: uni21AF
Encoding: 180 8623 180
Width: 626
Flags: W
HStem: 530 20G<461.517 526.7>
LayerCount: 2
Back
Fore
SplineSet
187 -108 m 1
 97 89 l 1
 175 125 l 1
 205 61 l 1
 333 406 l 1
 150 357 l 1
 382 942 l 1
 504 898 l 1
 320 492 l 1
 536 550 l 1
 297 36 l 1
 349 60 l 1
 385 -18 l 1
 187 -108 l 1
EndSplineSet
EndChar

StartChar: uni2662
Encoding: 181 9826 181
Width: 780
Flags: W
HStem: 0 21G<345 435> 687 20G<345 435>
LayerCount: 2
Back
Fore
SplineSet
390 0 m 1
 300 126 200 245 90 354 c 1
 200 462 300 581 390 707 c 1
 480 581 580 462 690 354 c 1
 580 245 480 126 390 0 c 1
390 133 m 1
 446 212 509 286 577 354 c 1
 509 421 446 495 390 574 c 1
 334 495 272 421 203 354 c 1
 272 286 334 212 390 133 c 1
EndSplineSet
EndChar

StartChar: diamond
Encoding: 182 9830 182
Width: 780
Flags: W
HStem: 0 21G<345 435> 687 20G<345 435>
LayerCount: 2
Back
Fore
SplineSet
390 0 m 1
 300 126 200 245 90 354 c 1
 200 462 300 581 390 707 c 1
 480 581 580 462 690 354 c 1
 580 245 480 126 390 0 c 1
EndSplineSet
EndChar

StartChar: uni2661
Encoding: 183 9825 183
Width: 840
Flags: W
HStem: 0 21G<358.5 481.5> 687 20G<213.5 292.5 547.5 626.5>
VStem: 90 660<415.219 614.034>
LayerCount: 2
Back
Fore
SplineSet
420 0 m 1
 297 176 90 312 90 530 c 0
 90 627 166 707 261 707 c 0
 324 707 375 663 420 619 c 1
 465 663 516 707 579 707 c 0
 674 707 750 627 750 530 c 0
 750 312 543 176 420 0 c 1
EndSplineSet
EndChar

StartChar: heart
Encoding: 184 9829 184
Width: 840
Flags: W
HStem: 0 21G<358.5 481.5> 687 20G<213.5 292.5 547.5 626.5>
VStem: 90 660<415.219 614.034>
LayerCount: 2
Back
Fore
SplineSet
420 0 m 1
 297 176 90 312 90 530 c 0
 90 627 166 707 261 707 c 0
 324 707 375 663 420 619 c 1
 465 663 516 707 579 707 c 0
 674 707 750 627 750 530 c 0
 750 312 543 176 420 0 c 1
EndSplineSet
EndChar

StartChar: spade
Encoding: 185 9824 185
Width: 780
Flags: W
HStem: 0 21G<300 480> 687 20G<345.5 434.5>
VStem: 89 602<194.534 376.681>
LayerCount: 2
Back
Fore
SplineSet
552 117 m 0
 505 117 471 142 450 178 c 1
 480 0 l 1
 300 0 l 1
 330 178 l 1
 309 142 275 117 228 117 c 0
 148 117 89 193 89 284 c 0
 89 464 301 553 390 707 c 1
 479 553 691 464 691 284 c 0
 691 193 631 117 552 117 c 0
EndSplineSet
EndChar

StartChar: club
Encoding: 186 9827 186
Width: 840
Flags: W
HStem: 0 21G<330 510> 687 20G<398 442>
VStem: 90 660<216.294 375.497> 255 330<459.358 623.497>
LayerCount: 2
Back
Fore
SplineSet
255 129 m 0xd0
 165 129 90 205 90 294 c 0xe0
 90 338 107 380 138 411 c 0
 169 442 211 459 255 459 c 0
 263 459 270 458 278 457 c 1
 263 482 255 512 255 542 c 0
 255 586 272 628 303 659 c 0
 334 690 376 707 420 707 c 0
 464 707 506 690 537 659 c 0
 568 628 585 586 585 542 c 0
 585 512 577 482 562 457 c 1
 570 458 577 459 585 459 c 0xd0
 629 459 671 442 702 411 c 0
 733 380 750 338 750 294 c 0xe0
 750 205 675 129 585 129 c 0
 549 129 514 141 485 163 c 1
 510 0 l 1
 330 0 l 1
 355 163 l 1
 326 141 291 129 255 129 c 0xd0
EndSplineSet
EndChar

StartChar: uni2720
Encoding: 187 10016 187
Width: 930
Flags: W
HStem: 232 86<379 422 508 551>
VStem: 422 86<189 232 318 361>
LayerCount: 2
Back
Fore
SplineSet
653 650 m 1
 508 361 l 1
 508 318 l 1
 551 318 l 1
 840 463 l 1
 840 87 l 1
 551 232 l 1
 508 232 l 1
 508 189 l 1
 653 -100 l 1
 278 -100 l 1
 422 189 l 1
 422 232 l 1
 379 232 l 1
 90 87 l 1
 90 463 l 1
 379 318 l 1
 422 318 l 1
 422 361 l 1
 278 650 l 1
 653 650 l 1
EndSplineSet
EndChar

StartChar: uni2721
Encoding: 188 10017 188
Width: 930
Flags: W
HStem: 59 68<209 300 419 511 630 721> 423 68<209 300 419 511 630 721> 688 20G<453.479 476.521>
LayerCount: 2
Back
Fore
SplineSet
300 127 m 1
 255 206 l 1
 209 127 l 1
 300 127 l 1
675 206 m 1
 630 127 l 1
 721 127 l 1
 675 206 l 1
511 491 m 1
 465 570 l 1
 419 491 l 1
 511 491 l 1
635 275 m 1
 550 423 l 1
 380 423 l 1
 295 275 l 1
 380 127 l 1
 550 127 l 1
 635 275 l 1
675 344 m 1
 721 423 l 1
 630 423 l 1
 675 344 l 1
300 423 m 1
 209 423 l 1
 255 344 l 1
 300 423 l 1
465 -158 m 1
 340 59 l 1
 90 59 l 1
 215 275 l 1
 90 491 l 1
 340 491 l 1
 465 708 l 1
 590 491 l 1
 840 491 l 1
 715 275 l 1
 840 59 l 1
 590 59 l 1
 465 -158 l 1
465 -20 m 1
 511 59 l 1
 419 59 l 1
 465 -20 l 1
EndSplineSet
EndChar

StartChar: uni2314
Encoding: 189 8980 189
Width: 720
Flags: W
HStem: 455 85<244.215 475.785>
LayerCount: 2
Back
Fore
SplineSet
513 416 m 1
 466 442 413 455 360 455 c 0
 307 455 254 442 207 416 c 1
 360 137 l 1
 513 416 l 1
554 491 m 2
 629 450 l 1
 385 5 l 1
 335 5 l 1
 91 450 l 1
 166 491 l 2
 226 524 293 540 360 540 c 0
 427 540 494 524 554 491 c 2
EndSplineSet
EndChar

StartChar: universal
Encoding: 190 8704 190
Width: 780
Flags: W
HStem: 0 21G<305.777 474.223> 381 86<296 484> 687 20G<92 201.25 578.75 688>
LayerCount: 2
Back
Fore
SplineSet
484 381 m 1
 296 381 l 1
 390 79 l 1
 484 381 l 1
92 707 m 1
 195 707 l 1
 270 467 l 1
 510 467 l 1
 585 707 l 1
 688 707 l 1
 468 0 l 1
 312 0 l 1
 92 707 l 1
EndSplineSet
EndChar

StartChar: existential
Encoding: 191 8707 191
Width: 660
Flags: W
HStem: 0 86<90 463> 311 86<143 463> 621 86<90 463>
VStem: 463 107<86 311 397 621>
LayerCount: 2
Back
Fore
SplineSet
90 0 m 1
 90 86 l 1
 463 86 l 1
 463 311 l 1
 143 311 l 1
 143 397 l 1
 463 397 l 1
 463 621 l 1
 90 621 l 1
 90 707 l 1
 250 707 410 707 570 707 c 1
 570 0 l 1
 410 0 250 0 90 0 c 1
EndSplineSet
EndChar

StartChar: uni2204
Encoding: 192 8708 192
Width: 660
Flags: W
HStem: 0 86<90 168 272 463> 311 86<143 252 355 463> 621 86<90 335 438 463>
VStem: 463 107<86 311 397 621>
LayerCount: 2
Back
Fore
SplineSet
355 397 m 1
 463 397 l 1
 463 621 l 1
 415 621 l 1
 355 397 l 1
272 86 m 1
 463 86 l 1
 463 311 l 1
 332 311 l 1
 272 86 l 1
395 844 m 1
 469 824 l 1
 438 707 l 1
 482 707 526 707 570 707 c 1
 570 0 l 1
 463 0 356 0 249 0 c 1
 212 -137 l 1
 137 -117 l 1
 168 0 l 1
 90 0 l 1
 90 86 l 1
 191 86 l 1
 252 311 l 1
 143 311 l 1
 143 397 l 1
 275 397 l 1
 335 621 l 1
 90 621 l 1
 90 707 l 1
 358 707 l 1
 395 844 l 1
EndSplineSet
EndChar

StartChar: uni2132
Encoding: 193 8498 193
Width: 660
Flags: W
HStem: 0 86<90 463> 311 86<143 463> 687 20G<463 570>
VStem: 463 107<86 311 397 707>
LayerCount: 2
Back
Fore
SplineSet
90 0 m 1
 90 86 l 1
 463 86 l 1
 463 311 l 1
 143 311 l 1
 143 397 l 1
 463 397 l 1
 463 707 l 1
 570 707 l 1
 570 471 570 236 570 0 c 1
 410 0 250 0 90 0 c 1
EndSplineSet
EndChar

StartChar: uni2141
Encoding: 194 8513 194
Width: 780
Flags: W
HStem: -11 108<224.516 428.782> 255 86<198 330> 545 21G<137.909 176> 600 107<210.754 422.596>
VStem: 90 108<120.553 255> 583 107<254.11 450.233>
LayerCount: 2
Back
Fore
SplineSet
583 354 m 0
 583 490 463 600 317 600 c 0
 257 600 200 581 152 545 c 1
 90 633 l 1
 155 681 236 707 317 707 c 0
 523 707 690 549 690 354 c 0
 690 153 530 -11 330 -11 c 0
 243 -11 158 19 90 74 c 1
 90 341 l 1
 330 341 l 1
 330 255 l 1
 198 255 l 1
 198 131 l 1
 238 109 284 97 330 97 c 0
 470 97 583 212 583 354 c 0
EndSplineSet
EndChar

StartChar: uni2201
Encoding: 195 8705 195
Width: 600
Flags: W
HStem: 0 108<236.794 363.409> 600 107<236.794 363.409>
VStem: 90 108<147.681 559.319> 403 107<147.681 204 503 559.319>
LayerCount: 2
Back
Fore
SplineSet
510 503 m 1
 403 503 l 1
 403 558 355 600 300 600 c 0
 245 600 198 558 198 503 c 2
 198 204 l 2
 198 149 245 108 300 108 c 0
 355 108 403 149 403 204 c 1
 510 204 l 1
 510 90 415 0 300 0 c 0
 185 0 90 90 90 204 c 2
 90 503 l 2
 90 617 185 707 300 707 c 0
 415 707 510 617 510 503 c 1
EndSplineSet
EndChar

StartChar: uni266D
Encoding: 196 9837 196
Width: 566
Flags: W
HStem: 460 86<224.993 330.883> 734 20G<90 176>
VStem: 90 86<122 413.298 508 754> 361 115<281.805 429.56>
LayerCount: 2
Back
Fore
SplineSet
176 389 m 1
 176 122 l 1
 264 184 361 250 361 355 c 0
 361 409 332 460 283 460 c 0
 238 460 205 424 176 389 c 1
90 754 m 1
 176 754 l 1
 176 508 l 1
 208 531 243 546 283 546 c 0
 389 546 476 461 476 355 c 0
 476 227 254 72 90 -43 c 1
 90 754 l 1
EndSplineSet
EndChar

StartChar: uni266E
Encoding: 197 9838 197
Width: 566
Flags: W
HStem: -220 21G<390 476> 0 21G<90 165> 526 20G<401 476> 734 20G<90 176>
VStem: 90 86<152 337 466 754> 390 86<-220 80 209 394>
LayerCount: 2
Back
Fore
SplineSet
390 80 m 1
 90 0 l 1
 90 754 l 1
 176 754 l 1
 176 466 l 1
 476 546 l 1
 476 -220 l 1
 390 -220 l 1
 390 80 l 1
390 209 m 1
 390 394 l 1
 176 337 l 1
 176 152 l 1
 390 209 l 1
EndSplineSet
EndChar

StartChar: uni266F
Encoding: 198 9839 198
Width: 566
Flags: W
HStem: -220 21G<144 230> 0 21G<90 144> 526 20G<423 476> 734 20G<337 423>
VStem: 144 86<-220 14 166 328 480 684> 337 86<-150 66 218 380 532 754>
LayerCount: 2
Back
Fore
SplineSet
337 195 m 1
 337 380 l 1
 230 351 l 1
 230 166 l 1
 337 195 l 1
423 -150 m 1
 337 -150 l 1
 337 66 l 1
 230 37 l 1
 230 -220 l 1
 144 -220 l 1
 144 14 l 1
 90 0 l 1
 90 129 l 1
 144 143 l 1
 144 328 l 1
 90 314 l 1
 90 443 l 1
 144 457 l 1
 144 684 l 1
 230 684 l 1
 230 480 l 1
 337 509 l 1
 337 754 l 1
 423 754 l 1
 423 532 l 1
 476 546 l 1
 476 417 l 1
 423 403 l 1
 423 218 l 1
 476 232 l 1
 476 103 l 1
 423 89 l 1
 423 -150 l 1
EndSplineSet
EndChar

StartChar: aleph
Encoding: 199 8501 199
Width: 806
Flags: W
HStem: 0 21G<90 219> 689 20G<601 716>
VStem: 90 129<0 223.681> 601 115<546.95 705>
LayerCount: 2
Back
Fore
SplineSet
219 0 m 1
 90 0 l 1
 90 169 120 341 214 478 c 1
 162 540 118 608 90 685 c 1
 211 729 l 1
 265 581 375 469 482 354 c 1
 561 453 601 577 601 705 c 1
 716 709 l 1
 716 549 660 394 556 273 c 1
 622 196 681 116 716 20 c 1
 608 -20 l 1
 547 147 411 266 289 394 c 1
 223 279 219 136 219 0 c 1
EndSplineSet
EndChar

StartChar: uni2136
Encoding: 200 8502 200
Width: 806
Flags: W
HStem: 0 125<107 530 638 699> 582 125<167 492.295>
VStem: 530 108<125 544.884>
LayerCount: 2
Back
Fore
SplineSet
167 707 m 1
 399 707 l 2
 574 707 638 646 638 471 c 2
 638 125 l 1
 733 125 l 1
 699 0 l 1
 73 0 l 1
 107 125 l 1
 530 125 l 1
 530 471 l 2
 530 559 491 582 399 582 c 2
 133 582 l 1
 167 707 l 1
EndSplineSet
EndChar

StartChar: uni2137
Encoding: 201 8503 201
Width: 626
Flags: W
HStem: 0 113<100 226.771>
LayerCount: 2
Back
Fore
SplineSet
100 113 m 1
 146 113 l 2
 190 113 215 113 231 141 c 2
 349 345 l 1
 345 387 340 429 334 471 c 0
 329 505 310 535 281 552 c 2
 169 617 l 1
 234 729 l 1
 345 664 l 2
 411 626 430 547 441 471 c 0
 463 312 473 148 536 0 c 1
 421 0 l 1
 393 65 377 133 366 203 c 1
 306 98 l 2
 272 40 235 0 146 0 c 2
 80 0 l 1
 100 113 l 1
EndSplineSet
EndChar

StartChar: uni2138
Encoding: 202 8504 202
Width: 746
Flags: W
HStem: 0 21G<435 543> 582 125<107 435 543 639>
VStem: 435 108<0 582>
LayerCount: 2
Back
Fore
SplineSet
107 707 m 1
 673 707 l 1
 639 582 l 1
 543 582 l 1
 543 0 l 1
 435 0 l 1
 435 582 l 1
 73 582 l 1
 107 707 l 1
EndSplineSet
EndChar

StartChar: weierstrass
Encoding: 203 8472 203
Width: 712
Flags: W
HStem: -220 86<85.3141 144.845> 0 86<341.054 471.385> 433 86<378.233 537.441> 526 20G<167.5 192.297>
VStem: -8 85<-127.185 40.2242> 156 113<-121.413 -10.4399> 550 117<246.237 417.882>
LayerCount: 2
Back
Fore
SplineSet
96 41 m 1
 87 9 77 -35 77 -71 c 0
 77 -107 88 -134 122 -134 c 0
 142 -134 156 -94 156 -74 c 0
 156 -65 155 -56 152 -48 c 0
 141 -14 119 14 96 41 c 1
550 376 m 0
 550 417 515 433 478 433 c 0
 338 433 221 322 149 179 c 1
 171 123 222 87 250 34 c 0
 262 11 269 -14 269 -41 c 0
 269 -51 268 -61 266 -71 c 0
 252 -141 185 -220 103 -220 c 0
 26 -220 -8 -154 -8 -72 c 0
 -8 -49 -5 -24 0 0 c 0
 9 44 23 87 39 129 c 1
 29 156 25 185 25 215 c 0
 25 247 30 281 37 315 c 0
 49 371 68 427 101 478 c 0
 122 512 150 546 185 546 c 1
 212 472 l 1
 198 472 187 449 179 430 c 0
 162 393 154 357 146 319 c 1
 237 437 360 519 496 519 c 0
 601 519 667 432 667 323 c 0
 667 302 665 281 660 259 c 0
 646 193 611 127 557 76 c 0
 508 30 446 0 386 0 c 0
 361 0 336 4 314 12 c 1
 347 97 l 1
 364 90 384 86 404 86 c 0
 436 86 471 99 492 127 c 0
 507 148 522 214 531 259 c 0
 539 296 550 347 550 376 c 0
EndSplineSet
EndChar
